<?xml version="1.0" encoding="UTF-8"?>
<svg width="1240px" height="920px" viewBox="0 0 1240 920" version="1.1" xmlns="http://www.w3.org/2000/svg" xmlns:xlink="http://www.w3.org/1999/xlink">
    <!-- Generator: Sketch 49.2 (51160) - http://www.bohemiancoding.com/sketch -->
    <title>2.0_template_空白模板</title>
    <desc>Created with Sketch.</desc>
    <defs>
        <rect id="path-1" x="0" y="0" width="24" height="24" rx="12"></rect>
        <rect id="path-2" x="0" y="0" width="1240" height="64"></rect>
        <filter x="-0.6%" y="-7.8%" width="101.1%" height="121.9%" filterUnits="objectBoundingBox" id="filter-3">
            <feOffset dx="0" dy="2" in="SourceAlpha" result="shadowOffsetOuter1"></feOffset>
            <feGaussianBlur stdDeviation="2" in="shadowOffsetOuter1" result="shadowBlurOuter1"></feGaussianBlur>
            <feColorMatrix values="0 0 0 0 0   0 0 0 0 0   0 0 0 0 0  0 0 0 0.3 0" type="matrix" in="shadowBlurOuter1"></feColorMatrix>
        </filter>
        <rect id="path-4" x="0" y="0" width="126" height="64"></rect>
        <rect id="path-5" x="0" y="0" width="142" height="64"></rect>
        <linearGradient x1="5.29933725%" y1="0%" x2="90.4817708%" y2="120.588942%" id="linearGradient-6">
            <stop stop-color="#FFE85D" offset="0%"></stop>
            <stop stop-color="#CF9A2C" offset="100%"></stop>
        </linearGradient>
        <path d="M0,16 C0,24.8203445 7.17965546,32 16,32 C24.8203445,32 32,24.8203445 32,16 C32,7.17965546 24.8203445,0 16,0 C7.17965546,0 0,7.17965546 0,16 Z" id="path-7"></path>
    </defs>
    <g id="2.0_AutomaticControl" stroke="none" stroke-width="1" fill="none" fill-rule="evenodd">
        <g id="2.0.1_template_空白模板">
            <rect id="bg" fill="#333333" x="0" y="0" width="1240" height="920"></rect>
            <g id="btn/add/template/n" transform="translate(1108.000000, 83.000000)">
                <g id="btn/add/template">
                    <rect id="Rectangle-3" fill="#4A4A4A" x="0" y="0" width="32" height="32" rx="16"></rect>
                    <g id="icon/template/add" transform="translate(8.000000, 8.000000)" stroke="#E6C043" stroke-linecap="round" stroke-linejoin="round">
                        <g id="btn/apply" transform="translate(8.000000, 8.000000) scale(-1, 1) translate(-8.000000, -8.000000) ">
                            <polyline id="Stroke-254" stroke-width="2" points="8 13 8 3 8 8.15151515"></polyline>
                            <polyline id="Stroke-256" stroke-width="2" points="3 8 13 8 8 8"></polyline>
                        </g>
                    </g>
                </g>
            </g>
            <g id="tab/template/all" transform="translate(100.000000, 83.000000)">
                <g id="tab_template_air">
                    <rect id="bg_box" fill="#4A4A4A" x="0" y="0" width="352" height="32" rx="16"></rect>
                    <path d="M16,0 L88,0 L88,32 L16,32 C7.163444,32 1.082166e-15,24.836556 0,16 L0,16 C-1.082166e-15,7.163444 7.163444,1.623249e-15 16,0 Z" id="a" fill="#4A4A4A"></path>
                    <rect id="Rectangle-2-Copy" fill="#4A4A4A" x="175" y="0" width="88" height="32"></rect>
                    <text id="水環-copy" font-family="NotoSansCJKsc-Regular, Noto Sans CJK SC" font-size="14" font-weight="normal" line-spacing="20" fill="#AAA097">
                        <tspan x="206" y="22">水環</tspan>
                    </text>
                    <text id="环境" font-family="NotoSansCJKsc-Regular, Noto Sans CJK SC" font-size="14" font-weight="normal" line-spacing="20" fill="#AAA097">
                        <tspan x="118" y="22">环境 </tspan>
                    </text>
                    <text id="灯架" font-family="NotoSansCJKsc-Regular, Noto Sans CJK SC" font-size="14" font-weight="normal" line-spacing="20" fill="#AAA097">
                        <tspan x="294" y="22">灯架 </tspan>
                    </text>
                    <text id="全部" font-family="NotoSansCJKsc-Medium, Noto Sans CJK SC" font-size="14" font-weight="400" line-spacing="20" fill="#E6C043">
                        <tspan x="31" y="22">全部</tspan>
                    </text>
                </g>
            </g>
            <g id="template1" transform="translate(100.000000, 134.000000)">
                <rect id="bg" fill="#4A4A4A" x="0" y="0" width="1040" height="738" rx="2"></rect>
                <text id="還未有任何模板创建" font-family="NotoSansCJKsc-Regular, Noto Sans CJK SC" font-size="16" font-weight="normal" line-spacing="20" fill="#FFFFFF">
                    <tspan x="448" y="414">還未有任何模板创建</tspan>
                </text>
                <text id="可在右上角,-按-新增模板" font-family="NotoSansCJKsc-Regular, Noto Sans CJK SC" font-size="16" font-weight="normal" line-spacing="20" fill="#FFFFFF">
                    <tspan x="418" y="450">可在右上角, 按          新增模板</tspan>
                </text>
                <g id="icon/template/empty" transform="translate(470.000000, 287.000000)">
                    <g id="icon/template/sucess">
                        <rect id="bound" fill-opacity="0" fill="#D8D8D8" x="0" y="0" width="100" height="100"></rect>
                        <path d="M33.8,31.25 L52.45,31.25 C53.1679702,31.25 53.75,31.8320298 53.75,32.55 L53.75,33.1999999 C53.75,33.9179701 53.1679702,34.4999999 52.45,34.4999999 L33.8,34.4999999 C33.0820298,34.4999999 32.5,33.9179701 32.5,33.1999999 L32.5,32.55 C32.5,31.8320298 33.0820298,31.25 33.8,31.25 Z M33.8,41.25 L62.45,41.25 C63.1679702,41.25 63.75,41.8320298 63.75,42.55 L63.75,43.1999999 C63.75,43.9179701 63.1679702,44.4999999 62.45,44.4999999 L33.8,44.4999999 C33.0820298,44.4999999 32.5,43.9179701 32.5,43.1999999 L32.5,42.55 C32.5,41.8320298 33.0820298,41.25 33.8,41.25 Z M33.8,51.25 L61.6999996,51.25 C62.4179697,51.25 62.9999995,51.8320298 62.9999995,52.55 L62.9999995,53.1999999 C62.9999995,53.9179701 62.4179697,54.4999999 61.6999996,54.4999999 L33.8,54.4999999 C33.0820298,54.4999999 32.5,53.9179701 32.5,53.1999999 L32.5,52.55 C32.5,51.8320298 33.0820298,51.25 33.8,51.25 Z M33.8,61.25 L52.45,61.25 C53.1679702,61.25 53.75,61.8320298 53.75,62.55 L53.75,63.1999999 C53.75,63.9179701 53.1679702,64.4999999 52.45,64.4999999 L33.8,64.4999999 C33.0820298,64.4999999 32.5,63.9179701 32.5,63.1999999 L32.5,62.55 C32.5,61.8320298 33.0820298,61.25 33.8,61.25 Z M26.5622413,18.8492759 C26.0742235,18.8492759 25.6618394,19.2515397 25.6618394,19.7237625 L25.6618394,76.6703297 C25.6618394,77.1425524 26.0742235,77.5448163 26.5622413,77.5448163 L51.8866964,77.5448163 C52.1949458,77.5448163 51.8009837,64.1707061 58.4368376,57.9129819 C65.2265469,51.5101695 72.2972561,50.7657724 72.2972561,51.591174 L72.2972561,19.7237625 C72.2972561,19.2515397 71.884872,18.8492759 71.3968542,18.8492759 L26.5622413,18.8492759 Z M27.2850503,81.25 C23.9571511,81.25 21.25,78.6207659 21.25,75.3886502 L21.25,20.8613498 C21.25,17.6292341 23.9571511,15 27.2850503,15 L70.2149497,15 C73.5428489,15 76.25,17.6292341 76.25,20.8613498 L76.25,49.6306818 C71.5193346,49.6306818 61.8625556,50.4000646 55.2244059,59.0672926 C47.7470361,68.8302646 53.575542,81.25 52.5123766,81.25 L27.2850503,81.25 Z" id="5H" fill="#E6C043"></path>
                        <path d="M70.9848485,62.6186658 C70.9848485,61.7163334 71.7061288,60.9848485 72.6098484,60.9848485 L72.6098484,60.9848485 C73.5073111,60.9848485 74.2348484,61.7083297 74.2348484,62.6186658 L74.2348484,74.3510312 C74.2348484,75.2533636 73.5135681,75.9848485 72.6098484,75.9848485 L72.6098484,75.9848485 C71.7123857,75.9848485 70.9848485,75.2613673 70.9848485,74.3510312 L70.9848485,62.6186658 Z M70,82.5 C70,81.1192881 71.1096621,80 72.5,80 L72.5,80 C73.8807119,80 75,81.1096621 75,82.5 L75,82.5 C75,83.8807119 73.8903379,85 72.5,85 L72.5,85 C71.1192881,85 70,83.8903379 70,82.5 L70,82.5 Z M72.7272727,48.4848485 C59.3593074,48.4848485 48.4848485,59.3605667 48.4848485,72.7272727 C48.4848485,86.0939787 59.3593074,96.969697 72.7272727,96.969697 C86.0939787,96.969697 96.969697,86.0939787 96.969697,72.7272727 C96.969697,59.3605667 86.0939787,48.4848485 72.7272727,48.4848485 Z M52.2348485,72.8598485 C52.2348485,84.2319913 61.4866342,93.4848485 72.8598485,93.4848485 C84.2319913,93.4848485 93.4848485,84.2319913 93.4848485,72.8598485 C93.4848485,61.4877056 84.2319913,52.2348485 72.8598485,52.2348485 C61.4866342,52.2348485 52.2348485,61.4877056 52.2348485,72.8598485 Z" id="2B" fill="#E6C043"></path>
                    </g>
                </g>
                <g id="btn/add/template" transform="translate(528.000000, 429.000000)">
                    <g>
                        <g id="Rectangle-3">
                            <use fill="#4A4A4A" fill-rule="evenodd" xlink:href="#path-1"></use>
                            <rect stroke="#AAA097" stroke-width="1" x="0.5" y="0.5" width="23" height="23" rx="11.5"></rect>
                        </g>
                        <g id="icon/template/add" transform="translate(6.000000, 6.000000)" stroke="#E6C043" stroke-linecap="round" stroke-linejoin="round">
                            <g id="btn/apply" transform="translate(6.000000, 6.000000) scale(-1, 1) translate(-6.000000, -6.000000) ">
                                <polyline id="Stroke-254" stroke-width="2" points="6 9.75 6 2.25 6 6.11363636"></polyline>
                                <polyline id="Stroke-256" stroke-width="2" points="2.25 6 9.75 6 6 6"></polyline>
                            </g>
                        </g>
                    </g>
                </g>
            </g>
            <g id="mainnav/auto">
                <g id="main_nav">
                    <g id="bg">
                        <use fill="black" fill-opacity="1" filter="url(#filter-3)" xlink:href="#path-2"></use>
                        <use fill="#FFFFFF" fill-rule="evenodd" xlink:href="#path-2"></use>
                        <use fill-opacity="0.2" fill="#AAA097" fill-rule="evenodd" xlink:href="#path-2"></use>
                    </g>
                    <g id="nav/manual" transform="translate(100.000000, 0.000000)">
                        <g id="Rectangle-4-Copy-2" opacity="0">
                            <use fill="#FFFFFF" xlink:href="#path-4"></use>
                            <use fill="#333333" xlink:href="#path-4"></use>
                        </g>
                        <g id="Group-2" transform="translate(11.000000, 16.000000)">
                            <text id="手动控制" font-family="NotoSansCJKtc-Medium, Noto Sans CJK TC" font-size="16" font-weight="400" line-spacing="14" fill="#AAA097">
                                <tspan x="36" y="27">手动控制</tspan>
                            </text>
                            <g id="icon/nav/manual/n">
                                <g id="icon/nav/manual">
                                    <rect id="bound" fill-opacity="0" fill="#D8D8D8" x="0" y="0" width="32" height="32"></rect>
                                    <g id="app_settings/n" transform="translate(5.000000, 6.000000)" fill="#AAA097">
                                        <path d="M11.7999998,11.1542053 C12.9281376,11.5406758 13.7391304,12.6104117 13.7391304,13.8695652 C13.7391304,15.1287187 12.9281376,16.1984547 11.7999998,16.5849251 L11.7999998,19.2 C11.7999998,19.6418278 11.4418276,20 10.9999998,20 C10.558172,20 10.1999998,19.6418278 10.1999998,19.2 L10.1999998,16.6605961 C8.93814263,16.3589861 8,15.2238331 8,13.8695652 C8,12.5152973 8.93814263,11.3801443 10.1999998,11.0785344 L10.1999998,0.800000012 C10.1999998,0.358172205 10.558172,8.11624513e-17 10.9999998,0 C11.4418276,-8.11624513e-17 11.7999998,0.358172205 11.7999998,0.800000012 L11.7999998,11.1542053 Z M19.8000008,2.94809973 C21.0618577,3.2497099 22,4.38486273 22,5.73913043 C22,7.09339814 21.0618577,8.22855097 19.8000008,8.53016114 L19.8000008,19.2 C19.8000008,19.6418278 19.4418286,20 19.0000008,20 C18.558173,20 18.2000008,19.6418278 18.2000008,19.2 L18.2000008,8.45449052 C17.0718627,8.06802026 16.2608696,6.99828415 16.2608696,5.73913043 C16.2608696,4.47997672 17.0718627,3.41024061 18.2000008,3.02377035 L18.2000008,0.800000012 C18.2000008,0.358172205 18.558173,8.11624513e-17 19.0000008,0 C19.4418286,-8.11624513e-17 19.8000008,0.358172205 19.8000008,0.800000012 L19.8000008,2.94809973 Z M3.79999983,3.15420534 C4.92813757,3.54067577 5.73913043,4.61041173 5.73913043,5.86956522 C5.73913043,7.12871871 4.92813757,8.19845467 3.79999983,8.5849251 L3.79999983,19.2 C3.79999983,19.6418278 3.44182763,20 2.99999982,20 C2.55817201,20 2.19999981,19.6418278 2.19999981,19.2 L2.19999981,8.66059606 C0.938142626,8.35898611 0,7.22383314 0,5.86956522 C0,4.51529729 0.938142626,3.38014432 2.19999981,3.07853437 L2.19999981,0.800000012 C2.19999981,0.358172205 2.55817201,8.11624513e-17 2.99999982,0 C3.44182763,-8.11624513e-17 3.79999983,0.358172205 3.79999983,0.800000012 L3.79999983,3.15420534 Z" id="Combined-Shape"></path>
                                    </g>
                                </g>
                            </g>
                        </g>
                    </g>
                    <g id="nav/tamplate" transform="translate(226.000000, 0.000000)">
                        <g id="Rectangle-4-Copy-3">
                            <use fill="#FFFFFF" xlink:href="#path-5"></use>
                            <use fill="#333333" xlink:href="#path-5"></use>
                        </g>
                        <g id="Group-3" transform="translate(13.000000, 17.000000)">
                            <text id="自动化模板" font-family="NotoSansCJKtc-Medium, Noto Sans CJK TC" font-size="16" font-weight="400" line-spacing="14" fill="#E6C043">
                                <tspan x="36" y="26">自动化模板</tspan>
                            </text>
                            <g id="icon/nav/aurocontrol/a">
                                <g id="icon/nav/aurocontrol">
                                    <rect id="bound" fill-opacity="0" fill="#D8D8D8" x="0" y="0" width="32" height="32"></rect>
                                    <path d="M16.815155,11.6562749 L11.7600088,11.6562749 C11.2921905,11.6562749 10.9135342,11.2989416 10.9135342,10.8562749 C10.9135342,10.4136082 11.2921905,10.0562749 11.7600088,10.0562749 L16.815155,10.0562749 C17.2829733,10.0562749 17.6616296,10.4136082 17.6616296,10.8562749 C17.6616296,11.2989416 17.2829733,11.6562749 16.815155,11.6562749 Z M20.1581653,15.205825 L11.7600088,15.205825 C11.2921905,15.205825 10.9135342,14.8431584 10.9135342,14.405825 C10.9135342,13.9631583 11.2921905,13.605825 11.7600088,13.605825 L20.1581653,13.605825 C20.6254193,13.605825 21.0046399,13.9631583 21.0046399,14.405825 C21.0046399,14.8431584 20.6254193,15.205825 20.1581653,15.205825 Z M20.1987961,18.749732 L11.8006396,18.749732 C11.3333856,18.749732 10.954165,18.3923986 10.954165,17.949732 C10.954165,17.5070653 11.3333856,17.1497319 11.8006396,17.1497319 L20.1987961,17.1497319 C20.6666144,17.1497319 21.0452707,17.5070653 21.0452707,17.949732 C21.0452707,18.3923986 20.6666144,18.749732 20.1987961,18.749732 Z M20.1581653,22.2992821 L11.7600088,22.2992821 C11.2921905,22.2992821 10.9135342,21.9366154 10.9135342,21.4992821 C10.9135342,21.0566154 11.2921905,20.6992821 11.7600088,20.6992821 L20.1581653,20.6992821 C20.6254193,20.6992821 21.0046399,21.0566154 21.0046399,21.4992821 C21.0046399,21.9366154 20.6254193,22.2992821 20.1581653,22.2992821 Z M8.97510738,6.69294918 C8.82217763,6.69294918 8.69294918,6.82274195 8.69294918,6.97510738 L8.69294918,25.3492491 C8.69294918,25.5016146 8.82217763,25.6314073 8.97510738,25.6314073 L23.0248926,25.6314073 C23.1778224,25.6314073 23.3070508,25.5016146 23.3070508,25.3492491 L23.3070508,6.97510738 C23.3070508,6.82274195 23.1778224,6.69294918 23.0248926,6.69294918 L8.97510738,6.69294918 Z M8.97510738,27.3243565 C7.88597674,27.3243565 7,26.4383798 7,25.3492491 L7,6.97510738 C7,5.88597674 7.88597674,5 8.97510738,5 L23.0248926,5 C24.1140233,5 25,5.88597674 25,6.97510738 L25,25.3492491 C25,26.4383798 24.1140233,27.3243565 23.0248926,27.3243565 L8.97510738,27.3243565 Z" id="5H" fill="url(#linearGradient-6)"></path>
                                </g>
                            </g>
                        </g>
                    </g>
                    <g id="nav/notification" transform="translate(368.000000, 0.000000)">
                        <g id="Group-4" transform="translate(11.000000, 16.000000)">
                            <text id="报警通知" font-family="NotoSansCJKtc-Medium, Noto Sans CJK TC" font-size="16" font-weight="400" line-spacing="14" fill="#AAA097">
                                <tspan x="36" y="27">报警通知</tspan>
                            </text>
                            <g id="icon/nav/alert/n">
                                <g id="icon/nav/alert">
                                    <rect id="bound" fill-opacity="0" fill="#D8D8D8" x="0" y="0" width="32" height="32"></rect>
                                    <g id="notification" transform="translate(9.000000, 4.500000)">
                                        <path d="M0,11.3846154 C0,7.30620492 3.13400675,4 7,4 C10.8659932,4 14,7.30620492 14,11.3846154 L14,20 L0,20 L0,11.3846154 Z" id="Combined-Shape" stroke="#AAA097" stroke-width="1.8"></path>
                                        <path d="M4.5,20.5 C4.5,21.8807119 5.61928813,23 7,23 C8.38071187,23 9.5,21.8807119 9.5,20.5 L4.5,20.5 Z" id="Oval-12" fill="#AAA097"></path>
                                        <rect id="Rectangle-3" fill="#AAA097" x="6" y="0" width="2" height="4" rx="1"></rect>
                                    </g>
                                </g>
                            </g>
                        </g>
                    </g>
                    <g id="btn/account" transform="translate(1016.000000, 16.000000)">
                        <text id="B9植物工厂" font-family="NotoSansCJKtc-Medium, Noto Sans CJK TC" font-size="16" font-weight="400" line-spacing="14" fill="#333333">
                            <tspan x="0" y="27">B9植物工厂</tspan>
                        </text>
                        <g id="icon/nav/profilepic" transform="translate(92.000000, 0.000000)">
                            <g id="icon/profilepic">
                                <mask id="mask-8" fill="white">
                                    <use xlink:href="#path-7"></use>
                                </mask>
                                <path stroke="#E6C043" stroke-width="1.8" d="M0.9,16 C0.9,24.3232883 7.67671173,31.1 16,31.1 C24.3232883,31.1 31.1,24.3232883 31.1,16 C31.1,7.67671173 24.3232883,0.9 16,0.9 C7.67671173,0.9 0.9,7.67671173 0.9,16 Z"></path>
                                <path d="M16,9.92229277 C18.0978622,9.92229277 19.8048582,11.6331333 19.8048582,13.7284325 C19.8048582,15.8301392 18.0978622,17.5345721 16,17.5345721 C13.9021378,17.5345721 12.1957826,15.8301392 12.1957826,13.7284325 C12.1957826,11.6331333 13.9021378,9.92229277 16,9.92229277 Z M16,19.4568649 C19.1576863,19.4568649 21.7271509,16.8874002 21.7271509,13.7284325 C21.7271509,10.5694647 19.1576863,8 16,8 C12.8423137,8 10.2734898,10.5694647 10.2734898,13.7284325 C10.2734898,16.8874002 12.8423137,19.4568649 16,19.4568649 Z M25.0777072,31.7919846 L6.92229277,31.7919846 L6.92229277,26.3322654 C6.92229277,25.2045203 7.36377934,24.1024058 8.1032213,23.3783422 C8.48127221,23.0066989 9.10409507,22.5581639 9.99283509,22.5837945 C10.4830197,22.5966098 12.001631,22.5773868 13.8483136,22.5709792 C16.6074445,22.5581639 20.0874352,22.538941 21.8879828,22.538941 C24.0793965,22.538941 25.0777072,24.3266733 25.0777072,25.9862527 L25.0777072,31.7919846 Z M13.8393429,20.6486864 C12.0061164,20.6550941 10.4919904,20.6615017 10.0191064,20.6615017 C8.82151803,20.6422788 7.66301625,21.1164443 6.75697559,22.0071067 C5.65678336,23.0835906 5,24.6983165 5,26.3322654 L5,31.753131 C5,32.2785577 5.42995282,32.7142774 5.96114639,32.7142774 L26.0388536,32.7142774 C26.5694064,32.7142774 27,32.2785577 27,31.753131 L27,25.9862527 C27,23.3847498 25.2084231,20.6166482 21.8879828,20.6166482 C20.0855129,20.6166482 16.6016776,20.6358711 13.8393429,20.6486864 Z" id="4F" fill="#E6C043" mask="url(#mask-8)"></path>
                            </g>
                        </g>
                    </g>
                </g>
            </g>
        </g>
    </g>
</svg>