<?xml version="1.0" encoding="UTF-8"?>
<svg width="34px" height="34px" viewBox="0 0 34 34" version="1.1" xmlns="http://www.w3.org/2000/svg" xmlns:xlink="http://www.w3.org/1999/xlink">
    <!-- Generator: Sketch 49.2 (51160) - http://www.bohemiancoding.com/sketch -->
    <title>icon/template/added</title>
    <desc>Created with Sketch.</desc>
    <defs>
        <filter x="-10.3%" y="-7.4%" width="120.6%" height="120.6%" filterUnits="objectBoundingBox" id="filter-1">
            <feOffset dx="0" dy="1" in="SourceAlpha" result="shadowOffsetOuter1"></feOffset>
            <feGaussianBlur stdDeviation="3" in="shadowOffsetOuter1" result="shadowBlurOuter1"></feGaussianBlur>
            <feColorMatrix values="0 0 0 0 0.2   0 0 0 0 0.2   0 0 0 0 0.2  0 0 0 0.5 0" type="matrix" in="shadowBlurOuter1" result="shadowMatrixOuter1"></feColorMatrix>
            <feMerge>
                <feMergeNode in="shadowMatrixOuter1"></feMergeNode>
                <feMergeNode in="SourceGraphic"></feMergeNode>
            </feMerge>
        </filter>
    </defs>
    <g id="icon/template/added" stroke="none" stroke-width="1" fill="none" fill-rule="evenodd">
        <g id="icon/template/sucess" filter="url(#filter-1)">
            <rect id="bound" fill-opacity="0" fill="#D8D8D8" x="0" y="0" width="34" height="34"></rect>
            <path d="M16.815155,11.6511628 L11.7600088,11.6511628 C11.2921905,11.6511628 10.9135342,11.2785642 10.9135342,10.8169869 C10.9135342,10.3554095 11.2921905,9.98281092 11.7600088,9.98281092 L16.815155,9.98281092 C17.2829733,9.98281092 17.6616296,10.3554095 17.6616296,10.8169869 C17.6616296,11.2785642 17.2829733,11.6511628 16.815155,11.6511628 Z M20.1581653,15.1491405 L11.7600088,15.1491405 C11.2921905,15.1491405 10.9135342,14.7709808 10.9135342,14.3149646 C10.9135342,13.8533873 11.2921905,13.4807887 11.7600088,13.4807887 L20.1581653,13.4807887 C20.6254193,13.4807887 21.0046399,13.8533873 21.0046399,14.3149646 C21.0046399,14.7709808 20.6254193,15.1491405 20.1581653,15.1491405 Z M11.7129589,18.6415571 C11.2941046,18.6415571 10.954165,18.2689585 10.954165,17.8073812 C10.954165,17.3458038 11.2941046,16.9732053 11.7129589,16.9732053 L20.4364014,16.9732053 C20.8557615,16.9732053 20.3146973,17.4510498 20,17.8073812 C19.6853027,18.1637126 19.6605662,18.6415571 19.2412061,18.6415571 L11.7129589,18.6415571 Z M17.0955775,22.1395349 L11.4795863,22.1395349 C11.1667481,22.1395349 10.9135342,21.7613751 10.9135342,21.3053589 C10.9135342,20.8437816 11.1667481,20.471183 11.4795863,20.471183 L17.0955775,20.471183 C17.4080383,20.471183 17.6616296,20.8437816 17.6616296,21.3053589 C17.6616296,21.7613751 17.4080383,22.1395349 17.0955775,22.1395349 Z M8.97510738,6.66835187 C8.82217763,6.66835187 8.69294918,6.79625885 8.69294918,6.94641052 L8.69294918,25.0535895 C8.69294918,25.2037412 8.82217763,25.3316481 8.97510738,25.3316481 L16.9110107,25.3316481 C17.0076066,25.3316481 16.884151,21.0791107 18.963623,19.0893555 C21.0913086,17.0534668 23.3070508,16.8167725 23.3070508,17.0792236 L23.3070508,6.94641052 C23.3070508,6.79625885 23.1778224,6.66835187 23.0248926,6.66835187 L8.97510738,6.66835187 Z M8.97510738,27 C7.88597674,27 7,26.1268959 7,25.0535895 L7,6.94641052 C7,5.87310415 7.88597674,5 8.97510738,5 L23.0248926,5 C24.1140233,5 25,5.87310415 25,6.94641052 L25,16.5 C23.4517822,16.5 20.2913818,16.7554932 18.1188965,19.633667 C15.6717573,22.8757105 17.5792683,27 17.2313232,27 L8.97510738,27 Z" id="5H" fill="#E6C043"></path>
            <path d="M26.7711914,21.2081914 L22.444275,25.4812138 L21.2653443,24.1333832 C21.0030923,23.833598 20.5469183,23.8028014 20.2466519,24.0655346 C19.9463854,24.3282677 19.9160701,24.7839605 20.1788032,25.084227 L21.86299,27.0090118 C21.9938753,27.1586639 22.1810607,27.2476852 22.3797947,27.2549031 C22.3889374,27.2553843 22.397599,27.2553843 22.4062605,27.2553843 C22.5958518,27.2553843 22.7782252,27.1807989 22.9134413,27.0475075 L27.785553,22.2355453 C28.0689776,21.955008 28.0718648,21.4978715 27.7918086,21.214447 C27.5117524,20.9310224 27.054616,20.9281352 26.7711914,21.2081914 M24,16 C19.5885714,16 16,19.588987 16,24 C16,28.411013 19.5885714,32 24,32 C28.411013,32 32,28.411013 32,24 C32,19.588987 28.411013,16 24,16 Z M24,17.5 C20.4157143,17.5 17.5,20.4160519 17.5,24 C17.5,27.5839481 20.4157143,30.5 24,30.5 C27.5839481,30.5 30.5,27.5839481 30.5,24 C30.5,20.4160519 27.5839481,17.5 24,17.5 Z" id="2B" fill="#E6C043"></path>
        </g>
    </g>
</svg>