<?xml version="1.0" encoding="UTF-8"?>
<svg width="628px" height="398px" viewBox="0 0 628 398" version="1.1" xmlns="http://www.w3.org/2000/svg" xmlns:xlink="http://www.w3.org/1999/xlink">
    <!-- Generator: Sketch 49.2 (51160) - http://www.bohemiancoding.com/sketch -->
    <title>box_info</title>
    <desc>Created with Sketch.</desc>
    <defs>
        <filter x="-4.0%" y="-4.9%" width="108.0%" height="113.0%" filterUnits="objectBoundingBox" id="filter-1">
            <feOffset dx="0" dy="6" in="SourceAlpha" result="shadowOffsetOuter1"></feOffset>
            <feGaussianBlur stdDeviation="7" in="shadowOffsetOuter1" result="shadowBlurOuter1"></feGaussianBlur>
            <feColorMatrix values="0 0 0 0 0   0 0 0 0 0   0 0 0 0 0  0 0 0 0.4 0" type="matrix" in="shadowBlurOuter1" result="shadowMatrixOuter1"></feColorMatrix>
            <feMerge>
                <feMergeNode in="shadowMatrixOuter1"></feMergeNode>
                <feMergeNode in="SourceGraphic"></feMergeNode>
            </feMerge>
        </filter>
        <rect id="path-2" x="0" y="0" width="600" height="370"></rect>
        <linearGradient x1="17.1693091%" y1="47.6928711%" x2="87.8839254%" y2="47.6928711%" id="linearGradient-4">
            <stop stop-color="#05698D" offset="0%"></stop>
            <stop stop-color="#05698D" stop-opacity="0.6" offset="100%"></stop>
        </linearGradient>
        <rect id="path-5" x="0" y="0" width="408" height="256"></rect>
        <linearGradient x1="85.9620367%" y1="83.0522739%" x2="21.7369114%" y2="25.5625821%" id="linearGradient-6">
            <stop stop-color="#29D9E2" offset="0%"></stop>
            <stop stop-color="#29B1EB" offset="100%"></stop>
        </linearGradient>
        <rect id="path-7" x="7" y="6" width="394" height="242"></rect>
        <linearGradient x1="56.9500812%" y1="21.0053943%" x2="110.57224%" y2="100%" id="linearGradient-8">
            <stop stop-color="#05698D" offset="0%"></stop>
            <stop stop-color="#05698D" stop-opacity="0.6" offset="100%"></stop>
        </linearGradient>
        <path d="M77,26 L77,77 L51,77 L51,26 L0,26 L0,0 L77,0 L77,26 Z" id="path-9"></path>
        <linearGradient x1="74.6329303%" y1="76.6021977%" x2="20.6766253%" y2="24.5395071%" id="linearGradient-10">
            <stop stop-color="#29D9E2" offset="0%"></stop>
            <stop stop-color="#29D9E2" stop-opacity="0.5" offset="100%"></stop>
        </linearGradient>
        <path d="M71,20 L71,77 L57,77 L57,20 L0,20 L0,6 L71,6 L71,20 Z" id="path-11"></path>
        <rect id="path-12" x="0" y="0" width="600" height="52"></rect>
        <filter x="-1.1%" y="-10.6%" width="102.2%" height="125.0%" filterUnits="objectBoundingBox" id="filter-13">
            <feOffset dx="0" dy="1" in="SourceAlpha" result="shadowOffsetOuter1"></feOffset>
            <feGaussianBlur stdDeviation="2" in="shadowOffsetOuter1" result="shadowBlurOuter1"></feGaussianBlur>
            <feColorMatrix values="0 0 0 0 0   0 0 0 0 0   0 0 0 0 0  0 0 0 0.3 0" type="matrix" in="shadowBlurOuter1"></feColorMatrix>
        </filter>
        <filter x="-17.7%" y="-17.7%" width="139.6%" height="139.6%" filterUnits="objectBoundingBox" id="filter-14">
            <feOffset dx="1" dy="1" in="SourceAlpha" result="shadowOffsetOuter1"></feOffset>
            <feGaussianBlur stdDeviation="3" in="shadowOffsetOuter1" result="shadowBlurOuter1"></feGaussianBlur>
            <feColorMatrix values="0 0 0 0 0   0 0 0 0 0   0 0 0 0 0  0 0 0 0.35 0" type="matrix" in="shadowBlurOuter1" result="shadowMatrixOuter1"></feColorMatrix>
            <feMerge>
                <feMergeNode in="shadowMatrixOuter1"></feMergeNode>
                <feMergeNode in="SourceGraphic"></feMergeNode>
            </feMerge>
        </filter>
        <filter x="-17.7%" y="-5.1%" width="139.6%" height="111.3%" filterUnits="objectBoundingBox" id="filter-15">
            <feOffset dx="1" dy="1" in="SourceAlpha" result="shadowOffsetOuter1"></feOffset>
            <feGaussianBlur stdDeviation="3" in="shadowOffsetOuter1" result="shadowBlurOuter1"></feGaussianBlur>
            <feColorMatrix values="0 0 0 0 0   0 0 0 0 0   0 0 0 0 0  0 0 0 0.35 0" type="matrix" in="shadowBlurOuter1" result="shadowMatrixOuter1"></feColorMatrix>
            <feMerge>
                <feMergeNode in="shadowMatrixOuter1"></feMergeNode>
                <feMergeNode in="SourceGraphic"></feMergeNode>
            </feMerge>
        </filter>
        <filter x="-17.7%" y="-17.7%" width="139.6%" height="139.6%" filterUnits="objectBoundingBox" id="filter-16">
            <feOffset dx="1" dy="1" in="SourceAlpha" result="shadowOffsetOuter1"></feOffset>
            <feGaussianBlur stdDeviation="3" in="shadowOffsetOuter1" result="shadowBlurOuter1"></feGaussianBlur>
            <feColorMatrix values="0 0 0 0 0   0 0 0 0 0   0 0 0 0 0  0 0 0 0.35 0" type="matrix" in="shadowBlurOuter1" result="shadowMatrixOuter1"></feColorMatrix>
            <feMerge>
                <feMergeNode in="shadowMatrixOuter1"></feMergeNode>
                <feMergeNode in="SourceGraphic"></feMergeNode>
            </feMerge>
        </filter>
        <filter x="-17.7%" y="-17.7%" width="139.6%" height="139.6%" filterUnits="objectBoundingBox" id="filter-17">
            <feOffset dx="1" dy="1" in="SourceAlpha" result="shadowOffsetOuter1"></feOffset>
            <feGaussianBlur stdDeviation="3" in="shadowOffsetOuter1" result="shadowBlurOuter1"></feGaussianBlur>
            <feColorMatrix values="0 0 0 0 0   0 0 0 0 0   0 0 0 0 0  0 0 0 0.35 0" type="matrix" in="shadowBlurOuter1" result="shadowMatrixOuter1"></feColorMatrix>
            <feMerge>
                <feMergeNode in="shadowMatrixOuter1"></feMergeNode>
                <feMergeNode in="SourceGraphic"></feMergeNode>
            </feMerge>
        </filter>
    </defs>
    <g id="1.0_ManualControl" stroke="none" stroke-width="1" fill="none" fill-rule="evenodd">
        <g id="1.1.9_灌溉池_1" transform="translate(-306.000000, -518.000000)">
            <g id="box_info" filter="url(#filter-1)" transform="translate(320.000000, 526.000000)">
                <mask id="mask-3" fill="white">
                    <use xlink:href="#path-2"></use>
                </mask>
                <use id="bg" fill-opacity="0.96" fill="#4A4A4A" xlink:href="#path-2"></use>
                <g id="img/pool" mask="url(#mask-3)">
                    <g transform="translate(74.000000, 88.000000)" id="pool">
                        <g>
                            <g id="Rectangle-5">
                                <use fill="#FFFFFF" xlink:href="#path-5"></use>
                                <use fill="url(#linearGradient-4)" xlink:href="#path-5"></use>
                            </g>
                            <g id="Rectangle-5">
                                <use fill="#FFFFFF" xlink:href="#path-7"></use>
                                <use fill="url(#linearGradient-6)" xlink:href="#path-7"></use>
                            </g>
                            <g id="airpump1" transform="translate(295.000000, 112.000000)">
                                <circle id="Oval-2" stroke="#29D9E2" stroke-width="2" fill-opacity="0.34" fill="#000000" cx="16" cy="16" r="16"></circle>
                                <circle id="Oval-2" fill="#30DBE3" cx="16" cy="8" r="2.66666667"></circle>
                                <circle id="Oval-2-Copy-4" fill="#30DBE3" cx="16" cy="24" r="2.66666667"></circle>
                                <circle id="Oval-2" fill="#30DBE3" cx="8" cy="16" r="2.66666667"></circle>
                                <circle id="Oval-2-Copy-3" fill="#30DBE3" cx="24" cy="16" r="2.66666667"></circle>
                            </g>
                            <g id="airpump1" transform="translate(192.000000, 112.000000)">
                                <circle id="Oval-2" stroke="#29D9E2" stroke-width="2" fill-opacity="0.34" fill="#000000" cx="16" cy="16" r="16"></circle>
                                <circle id="Oval-2" fill="#30DBE3" cx="16" cy="8" r="2.66666667"></circle>
                                <circle id="Oval-2-Copy-4" fill="#30DBE3" cx="16" cy="24" r="2.66666667"></circle>
                                <circle id="Oval-2" fill="#30DBE3" cx="8" cy="16" r="2.66666667"></circle>
                                <circle id="Oval-2-Copy-3" fill="#30DBE3" cx="24" cy="16" r="2.66666667"></circle>
                            </g>
                            <g id="airpump1" transform="translate(89.000000, 112.000000)">
                                <circle id="Oval-2" stroke="#29D9E2" stroke-width="2" fill-opacity="0.34" fill="#000000" cx="16" cy="16" r="16"></circle>
                                <circle id="Oval-2" fill="#30DBE3" cx="16" cy="8" r="2.66666667"></circle>
                                <circle id="Oval-2-Copy-4" fill="#30DBE3" cx="16" cy="24" r="2.66666667"></circle>
                                <circle id="Oval-2" fill="#30DBE3" cx="8" cy="16" r="2.66666667"></circle>
                                <circle id="Oval-2-Copy-3" fill="#30DBE3" cx="24" cy="16" r="2.66666667"></circle>
                            </g>
                            <g id="waterpipe" transform="translate(408.000000, 205.000000)">
                                <g id="Group">
                                    <g id="Combined-Shape">
                                        <use fill="#FFFFFF" xlink:href="#path-9"></use>
                                        <use fill="url(#linearGradient-8)" xlink:href="#path-9"></use>
                                    </g>
                                    <g id="Combined-Shape">
                                        <use fill="#FFFFFF" xlink:href="#path-11"></use>
                                        <use fill="url(#linearGradient-10)" xlink:href="#path-11"></use>
                                    </g>
                                </g>
                            </g>
                        </g>
                    </g>
                </g>
                <g id="box/hint" mask="url(#mask-3)">
                    <g transform="translate(50.000000, 276.000000)">
                        <rect id="Rectangle-6" fill="#AAA097" fill-rule="evenodd" x="0" y="0" width="60" height="20"></rect>
                        <text id="左排供水" fill="none" font-family="NotoSansCJKsc-Regular, Noto Sans CJK SC" font-size="12" font-weight="normal" line-spacing="14">
                            <tspan x="6" y="17" fill="#4A4A4A">左排供水</tspan>
                        </text>
                    </g>
                </g>
                <g id="header_pool" mask="url(#mask-3)">
                    <g id="Rectangle-2">
                        <use fill="black" fill-opacity="1" filter="url(#filter-13)" xlink:href="#path-12"></use>
                        <use fill="#4A4A4A" fill-rule="evenodd" xlink:href="#path-12"></use>
                    </g>
                    <g id="btn/switch/off" transform="translate(496.000000, 15.000000)">
                        <g id="icon_switch_off">
                            <rect id="Rectangle-3" fill="#5A5A5A" x="0" y="0" width="48" height="22" rx="11"></rect>
                            <rect id="Rectangle-3" fill="#AAA097" x="4" y="3" width="16" height="16" rx="8"></rect>
                            <text id="OFF" font-family="NotoSansCJKtc-Regular, Noto Sans CJK TC" font-size="11" font-weight="normal" line-spacing="10" letter-spacing="-0.439999998" fill="#AAA097">
                                <tspan x="23" y="18">OF</tspan>
                                <tspan x="36.354" y="18" letter-spacing="-0.483999997">F</tspan>
                            </text>
                        </g>
                    </g>
                    <text id="模板名稱" font-family="NotoSansCJKsc-Medium, Noto Sans CJK SC" font-size="14" font-weight="400" line-spacing="13" fill="#AAA097" fill-opacity="0.54">
                        <tspan x="434" y="36">模板名稱</tspan>
                    </text>
                    <text id="灌溉池-S04" font-family="NotoSansCJKsc-Medium, Noto Sans CJK SC" font-size="16" font-weight="400" line-spacing="20" fill="#FFFFFF">
                        <tspan x="20" y="35">灌溉池 S04</tspan>
                    </text>
                </g>
                <g id="pipe" filter="url(#filter-14)" mask="url(#mask-3)">
                    <g transform="translate(451.000000, 282.000000)">
                        <circle id="Oval-5-Copy-2" fill="#4A4A4A" cx="24" cy="24" r="24"></circle>
                        <g id="icon/pool/valve/n" fill="none" transform="translate(8.000000, 8.000000)" stroke-width="1">
                            <g fill="#AAA097" id="Fill-1" stroke="#AAA097">
                                <path d="M25.1361646,23.2847495 L23.4521586,23.2847495 L23.4521586,22.3056685 C23.4521586,21.7936745 23.0300344,21.3716065 22.5180405,21.3716065 L9.48630417,21.3716065 C8.97431022,21.3716065 8.55224219,21.7936745 8.55224219,22.3056685 L8.55224219,23.2397866 L6.82327326,23.2397866 L6.82327326,12.7763839 L8.50267628,12.7763839 L8.50267628,13.7104459 C8.50267628,14.2224398 8.92496884,14.644564 9.43673826,14.644564 L22.4733021,14.644564 C22.9851276,14.644564 23.4074202,14.2224398 23.4074202,13.7104459 L23.4074202,12.7763839 L25.1361646,12.7763839 L25.1361646,23.2847495 Z M26.0702827,10.9487322 L22.5180405,10.9487322 C22.0062711,10.9487322 21.584203,11.3708564 21.584203,11.8828503 L21.584203,12.8169123 L17.1472403,12.8169123 L17.1472403,7.86818009 L19.4374884,7.86818009 C19.9495385,7.86818009 20.3716065,7.44611206 20.3716065,6.93411811 C20.3716065,6.42212416 19.9495385,6 19.4374884,6 L12.9889804,6 C12.4769304,6 12.0548623,6.42212416 12.0548623,6.93411811 C12.0548623,7.44611206 12.4769304,7.86818009 12.9889804,7.86818009 L15.2792286,7.86818009 L15.2792286,12.8213468 L10.3708564,12.8213468 L10.3708564,11.8872287 C10.3708564,11.3754593 9.94873221,10.9531106 9.43673826,10.9531106 L5.93411811,10.9531106 C5.42212416,10.9531106 5,11.3754593 5,11.8872287 L5,24.1739047 C5,24.6856741 5.42212416,25.1077421 5.93411811,25.1077421 L9.43673826,25.1077421 C9.94873221,25.1077421 10.3708564,24.6856741 10.3708564,24.1739047 L10.3708564,23.2397866 L21.584203,23.2397866 L21.584203,24.1739047 C21.584203,24.6856741 22.0062711,25.1077421 22.5180405,25.1077421 L26.0209413,25.1077421 C26.5329353,25.1077421 26.9550033,24.6856741 26.9999662,24.2186431 L26.9999662,11.8828503 C27.0043447,11.3708564 26.5822766,10.9487322 26.0702827,10.9487322 Z" stroke-width="0.6"></path>
                            </g>
                        </g>
                    </g>
                </g>
                <g id="加藥機" filter="url(#filter-15)" mask="url(#mask-3)">
                    <g transform="translate(475.000000, 186.000000) scale(-1, 1) translate(-475.000000, -186.000000) translate(451.000000, 102.000000)">
                        <g id="ph+" transform="translate(0.000000, 60.000000)">
                            <circle id="Oval-5-Copy-2" fill="#4A4A4A" cx="24" cy="24" r="24"></circle>
                            <g id="icon/pool/ph+/n" transform="translate(24.000000, 24.500000) scale(-1, 1) translate(-24.000000, -24.500000) translate(8.000000, 8.000000)" fill="#AAA097">
                                <g id="Group-4">
                                    <g transform="translate(0.000000, 0.500000)">
                                        <g id="ph-" transform="translate(2.000000, 11.000000)">
                                            <path d="M9.95886861,11.634573 C9.42914234,11.634573 9,11.2051934 9,10.6757044 L9,0.958916058 C9,0.429308394 9.42914234,4.74452555e-05 9.95886861,4.74452555e-05 C10.4885949,4.74452555e-05 10.9177372,0.429308394 10.9177372,0.958916058 L10.9177372,4.60271168 L15.1369252,4.60271168 L15.1369252,0.958916058 C15.1369252,0.429308394 15.5660675,4.74452555e-05 16.0957938,4.74452555e-05 C16.6255201,4.74452555e-05 17.0546624,0.429308394 17.0546624,0.958916058 L17.0546624,10.6757044 C17.0546624,11.2051934 16.6255201,11.634573 16.0957938,11.634573 C15.5660675,11.634573 15.1369252,11.2051934 15.1369252,10.6757044 L15.1369252,6.52044891 L10.9177372,6.52044891 L10.9177372,10.6757044 C10.9177372,11.2051934 10.4885949,11.634573 9.95886861,11.634573 Z" id="Fill-1"></path>
                                            <path d="M1.91773723,4.60271168 L5.11400547,4.60271168 L5.11400547,1.91778467 L1.91773723,1.91778467 L1.91773723,4.60271168 Z M0.958868613,11.634573 C1.48859489,11.634573 1.91773723,11.2051934 1.91773723,10.6757044 L1.91773723,6.52044891 L6.0729927,6.52044891 C6.60271898,6.52044891 7.03186131,6.09118796 7.03186131,5.56158029 L7.03186131,0.958916058 C7.03186131,0.429308394 6.60271898,4.74452555e-05 6.0729927,4.74452555e-05 L0.958868613,4.74452555e-05 C0.429260949,4.74452555e-05 0,0.429308394 0,0.958916058 L0,5.56158029 L0,10.6757044 C0,11.2051934 0.429260949,11.634573 0.958868613,11.634573 Z" id="Fill-3"></path>
                                            <path d="M21.9791667,4.60419973 L21.9791667,2.62503308 C21.9791667,2.07274833 22.4268819,1.62503308 22.9791667,1.62503308 L23.1458333,1.62503308 C23.6981181,1.62503308 24.1458333,2.07274833 24.1458333,2.62503308 L24.1458333,4.60419973 L26.125,4.60419973 C26.6772847,4.60419973 27.125,5.05191498 27.125,5.60419973 L27.125,5.77086643 C27.125,6.32315118 26.6772847,6.77086643 26.125,6.77086643 L24.1458333,6.77086643 L24.1458333,8.75003308 C24.1458333,9.30231783 23.6981181,9.75003308 23.1458333,9.75003308 L22.9791667,9.75003308 C22.4268819,9.75003308 21.9791667,9.30231783 21.9791667,8.75003308 L21.9791667,6.77086643 L20,6.77086643 C19.4477153,6.77086643 19,6.32315118 19,5.77086643 L19,5.60419973 C19,5.05191498 19.4477153,4.60419973 20,4.60419973 L21.9791667,4.60419973 Z" id="Combined-Shape"></path>
                                        </g>
                                    </g>
                                </g>
                            </g>
                        </g>
                        <g id="ph-">
                            <circle id="Oval-5-Copy-2" fill="#4A4A4A" cx="24" cy="24" r="24"></circle>
                            <g id="icon/pool/ph-/n" transform="translate(24.000000, 24.000000) scale(-1, 1) translate(-24.000000, -24.000000) translate(8.000000, 8.000000)" fill="#AAA097">
                                <g id="Group-4">
                                    <g transform="translate(2.000000, 1.000000)">
                                        <g id="ph-" transform="translate(0.000000, 10.000000)">
                                            <path d="M9.95886861,11.634573 C9.42914234,11.634573 9,11.2051934 9,10.6757044 L9,0.958916058 C9,0.429308394 9.42914234,4.74452555e-05 9.95886861,4.74452555e-05 C10.4885949,4.74452555e-05 10.9177372,0.429308394 10.9177372,0.958916058 L10.9177372,4.60271168 L15.1369252,4.60271168 L15.1369252,0.958916058 C15.1369252,0.429308394 15.5660675,4.74452555e-05 16.0957938,4.74452555e-05 C16.6255201,4.74452555e-05 17.0546624,0.429308394 17.0546624,0.958916058 L17.0546624,10.6757044 C17.0546624,11.2051934 16.6255201,11.634573 16.0957938,11.634573 C15.5660675,11.634573 15.1369252,11.2051934 15.1369252,10.6757044 L15.1369252,6.52044891 L10.9177372,6.52044891 L10.9177372,10.6757044 C10.9177372,11.2051934 10.4885949,11.634573 9.95886861,11.634573 Z" id="Fill-1"></path>
                                            <path d="M1.91773723,4.60271168 L5.11400547,4.60271168 L5.11400547,1.91778467 L1.91773723,1.91778467 L1.91773723,4.60271168 Z M0.958868613,11.634573 C1.48859489,11.634573 1.91773723,11.2051934 1.91773723,10.6757044 L1.91773723,6.52044891 L6.0729927,6.52044891 C6.60271898,6.52044891 7.03186131,6.09118796 7.03186131,5.56158029 L7.03186131,0.958916058 C7.03186131,0.429308394 6.60271898,4.74452555e-05 6.0729927,4.74452555e-05 L0.958868613,4.74452555e-05 C0.429260949,4.74452555e-05 0,0.429308394 0,0.958916058 L0,5.56158029 L0,10.6757044 C0,11.2051934 0.429260949,11.634573 0.958868613,11.634573 Z" id="Fill-3"></path>
                                            <rect id="Rectangle-4" x="19" y="4.60419973" width="8.125" height="2.1666667" rx="1.08333335"></rect>
                                        </g>
                                    </g>
                                </g>
                            </g>
                        </g>
                        <g id="ec" transform="translate(0.000000, 120.000000)">
                            <circle id="Oval-5-Copy-2" fill="#4A4A4A" cx="24" cy="24" r="24"></circle>
                            <g id="icon/pool/ec/n" transform="translate(8.000000, 8.000000)" fill="#AAA097">
                                <g>
                                    <path d="M16,6 C15.8373088,6 15.6849864,6.07992649 15.5930663,6.21420628 C15.3239716,6.60578028 9,15.8622872 9,20.5442361 C9,24.4009358 12.140343,27.5384615 16,27.5384615 C19.859657,27.5384615 23,24.4009358 23,20.5442361 C23,15.8622872 16.6763575,6.60578028 16.4069337,6.21420628 C16.3150136,6.07992649 16.1626912,6 16,6" id="Fill-1"></path>
                                    <g id="Group-11" transform="translate(0.000000, 1.775688)">
                                        <path d="M29.9856298,2.98579882 L28.0143702,2.98579882 L28.0143702,1.01437025 C28.0143702,0.45443787 27.5599324,0 27,0 C26.4392223,0 25.9856298,0.45443787 25.9856298,1.01437025 L25.9856298,2.98579882 L24.0143702,2.98579882 C23.4535926,2.98579882 23,3.44006762 23,4.00016906 C23,4.56010144 23.4535926,5.01453931 24.0143702,5.01453931 L25.9856298,5.01453931 L25.9856298,6.98579882 C25.9856298,7.54573119 26.4392223,8.00016906 27,8.00016906 C27.5599324,8.00016906 28.0143702,7.54573119 28.0143702,6.98579882 L28.0143702,5.01453931 L29.9856298,5.01453931 C30.5457312,5.01453931 31,4.56010144 31,4.00016906 C31,3.44006762 30.5457312,2.98579882 29.9856298,2.98579882" id="Fill-6"></path>
                                        <path d="M6.11242604,25.612574 L4.38757396,25.612574 L4.38757396,23.887574 C4.38757396,23.3976331 3.99008876,23 3.5,23 C3.00946746,23 2.61242604,23.3976331 2.61242604,23.887574 L2.61242604,25.612574 L0.887573964,25.612574 C0.397633136,25.612574 0,26.0100592 0,26.5001479 C0,26.9900888 0.397633136,27.3877219 0.887573964,27.3877219 L2.61242604,27.3877219 L2.61242604,29.112574 C2.61242604,29.6025148 3.00946746,30.0001479 3.5,30.0001479 C3.99008876,30.0001479 4.38757396,29.6025148 4.38757396,29.112574 L4.38757396,27.3877219 L6.11242604,27.3877219 C6.60251479,27.3877219 7,26.9900888 7,26.5001479 C7,26.0100592 6.60251479,25.612574 6.11242604,25.612574" id="Fill-8"></path>
                                    </g>
                                </g>
                            </g>
                        </g>
                    </g>
                </g>
                <g id="供水" filter="url(#filter-16)" mask="url(#mask-3)">
                    <g transform="translate(56.000000, 162.000000)">
                        <circle id="Oval-5-Copy-2" fill="#4A4A4A" cx="24" cy="24" r="24"></circle>
                        <g id="icon/pool/pump/n" fill="none" transform="translate(8.000000, 8.000000)" stroke-width="1">
                            <g id="icon/pool/pipe/n" fill="#AAA097">
                                <path d="M14.5182381,19.7986995 C12.4239627,18.9829369 11.3847579,16.6136557 12.2031648,14.5193803 C13.0189273,12.426427 15.3868864,11.3872222 17.4811618,12.2029848 C19.5754372,13.0200695 20.6133199,15.3880286 19.7975574,17.482304 C18.9804726,19.5765794 16.6111914,20.6157842 14.5182381,19.7986995 M26.1147593,17.500814 L25.1019973,17.1054931 C24.8269915,16.9983995 24.6048714,16.625555 24.6154485,16.2910527 C24.6247035,15.9803489 24.6167706,15.6656787 24.5929721,15.354975 C24.5665292,15.023117 24.7714614,14.6423396 25.0411787,14.5246689 L26.0433635,14.084395 C26.7467439,13.7763356 27.0667027,12.9539623 26.7586432,12.2505819 L26.0446857,10.6243454 C25.8952835,10.2845545 25.6215998,10.0214479 25.2765203,9.88791139 C24.9301187,9.7517306 24.5519856,9.75966346 24.2121947,9.90906568 L23.2100099,10.3493395 C23.0487084,10.4194131 22.8292326,10.4128024 22.621656,10.3334738 C22.4920859,10.2819102 22.3797037,10.2078701 22.2950866,10.1179644 C22.0822214,9.88791139 21.8548127,9.66843556 21.6207933,9.46614759 C21.3669418,9.24667176 21.2439824,8.8288744 21.3497539,8.55519068 L21.746397,7.54110657 C22.0240471,6.82714904 21.6710348,6.02064147 20.9557551,5.74034704 L19.3004314,5.09514098 C18.5864739,4.81616869 17.777322,5.17182531 17.4983497,5.88578283 L17.1043509,6.8985448 C16.9972573,7.17222851 16.6244128,7.39567078 16.2899105,7.38509363 C15.9792068,7.37583862 15.6645366,7.38377148 15.3525107,7.40757007 C15.2321957,7.41814722 15.0946927,7.39567078 14.9664448,7.34542932 C14.7588683,7.26477856 14.5922782,7.11934277 14.5222046,6.95804126 L14.0832529,5.95717858 C13.9338507,5.61738769 13.6614891,5.35560326 13.3150875,5.22074462 C12.9686859,5.08588597 12.5905528,5.09381884 12.2507619,5.24189891 L10.6218811,5.95717858 C10.280768,6.1065808 10.0203057,6.37894238 9.88412495,6.72402185 C9.7492663,7.07042346 9.75719917,7.44855652 9.90660139,7.78834741 L10.3468752,8.79185438 C10.464546,9.06157166 10.3587745,9.47936903 10.1141779,9.70677772 C9.88676923,9.91832069 9.6672934,10.1457294 9.46368329,10.3810709 C9.24552961,10.6322782 8.82905439,10.7565597 8.55537067,10.6494661 L7.54128656,10.2541452 C6.82732903,9.97517286 6.01949932,10.3308295 5.74052703,11.044787 L5.09532097,12.7014329 C4.81634868,13.4153904 5.17068315,14.2232201 5.88464068,14.5021924 L6.89740264,14.8975133 C7.17108636,15.004607 7.39452862,15.3761293 7.38395147,15.7106316 C7.37469647,16.0213354 7.38395147,16.3360055 7.40775006,16.6467093 C7.43419293,16.9785673 7.22661639,17.3593447 6.95822125,17.4783376 L5.95471428,17.9172892 C5.2539782,18.2266708 4.93269731,19.0490441 5.23943462,19.7497802 L5.95471428,21.3799832 C6.10411651,21.7197741 6.37647808,21.9815585 6.72287969,22.1177393 C7.06928131,22.2512758 7.44741436,22.2446651 7.78720526,22.0939407 L8.78939008,21.6549891 C8.95201374,21.5849155 9.17281171,21.5888819 9.37906611,21.6708548 C9.50863618,21.7210963 9.62101838,21.7964584 9.70431342,21.8863642 C9.91850068,22.115095 10.1445872,22.3345709 10.3799288,22.5368588 C10.6324582,22.7550125 10.7554176,23.1728099 10.6483239,23.4464936 L10.253003,24.4592556 C9.97403071,25.1732131 10.3296873,25.982365 11.0436448,26.2613372 L12.6989686,26.9065433 C13.4142483,27.1855156 14.222078,26.8311811 14.5010503,26.1159015 L14.8963712,25.1044616 C15.0034648,24.8294558 15.3749872,24.6060135 15.7094895,24.6179128 C16.0201932,24.6258457 16.3361855,24.6192349 16.6468893,24.5941142 C16.7685265,24.5848592 16.9047073,24.6073357 17.031633,24.6575771 C17.2405317,24.7382279 17.4071218,24.8836637 17.4771954,25.0449652 L17.9174692,26.04715 C18.0668714,26.3856187 18.339233,26.6487253 18.6856346,26.783584 C19.0320362,26.9184426 19.4088472,26.9105097 19.7499602,26.7624297 L21.3775189,26.04715 C22.0795772,25.7377684 22.3995359,24.9153951 22.0927986,24.2133369 L21.6525248,23.2111521 C21.534854,22.9414348 21.6406255,22.5223153 21.885222,22.2962287 C22.1139529,22.0846857 22.3334287,21.857277 22.5357167,21.6219355 C22.7538704,21.3680839 23.1703456,21.2464467 23.4453515,21.3535403 L24.4581134,21.7488613 C25.1733931,22.0265114 25.9812228,21.6721769 26.2588729,20.9582194 L26.9054012,19.3015735 C27.1830513,18.5862939 26.8287168,17.7784642 26.1147593,17.500814" id="Fill-1"></path>
                            </g>
                        </g>
                    </g>
                </g>
                <g id="供水" filter="url(#filter-17)" mask="url(#mask-3)">
                    <g transform="translate(56.000000, 222.000000)">
                        <circle id="Oval-5-Copy" fill="#4A4A4A" cx="24" cy="24" r="24"></circle>
                        <g id="icon/pool/pump/a" fill="none" transform="translate(8.000000, 8.000000)" stroke-width="1">
                            <g id="icon/pool/pipe/a" fill="#E6C043">
                                <path d="M14.5182381,19.7986995 C12.4239627,18.9829369 11.3847579,16.6136557 12.2031648,14.5193803 C13.0189273,12.426427 15.3868864,11.3872222 17.4811618,12.2029848 C19.5754372,13.0200695 20.6133199,15.3880286 19.7975574,17.482304 C18.9804726,19.5765794 16.6111914,20.6157842 14.5182381,19.7986995 M26.1147593,17.500814 L25.1019973,17.1054931 C24.8269915,16.9983995 24.6048714,16.625555 24.6154485,16.2910527 C24.6247035,15.9803489 24.6167706,15.6656787 24.5929721,15.354975 C24.5665292,15.023117 24.7714614,14.6423396 25.0411787,14.5246689 L26.0433635,14.084395 C26.7467439,13.7763356 27.0667027,12.9539623 26.7586432,12.2505819 L26.0446857,10.6243454 C25.8952835,10.2845545 25.6215998,10.0214479 25.2765203,9.88791139 C24.9301187,9.7517306 24.5519856,9.75966346 24.2121947,9.90906568 L23.2100099,10.3493395 C23.0487084,10.4194131 22.8292326,10.4128024 22.621656,10.3334738 C22.4920859,10.2819102 22.3797037,10.2078701 22.2950866,10.1179644 C22.0822214,9.88791139 21.8548127,9.66843556 21.6207933,9.46614759 C21.3669418,9.24667176 21.2439824,8.8288744 21.3497539,8.55519068 L21.746397,7.54110657 C22.0240471,6.82714904 21.6710348,6.02064147 20.9557551,5.74034704 L19.3004314,5.09514098 C18.5864739,4.81616869 17.777322,5.17182531 17.4983497,5.88578283 L17.1043509,6.8985448 C16.9972573,7.17222851 16.6244128,7.39567078 16.2899105,7.38509363 C15.9792068,7.37583862 15.6645366,7.38377148 15.3525107,7.40757007 C15.2321957,7.41814722 15.0946927,7.39567078 14.9664448,7.34542932 C14.7588683,7.26477856 14.5922782,7.11934277 14.5222046,6.95804126 L14.0832529,5.95717858 C13.9338507,5.61738769 13.6614891,5.35560326 13.3150875,5.22074462 C12.9686859,5.08588597 12.5905528,5.09381884 12.2507619,5.24189891 L10.6218811,5.95717858 C10.280768,6.1065808 10.0203057,6.37894238 9.88412495,6.72402185 C9.7492663,7.07042346 9.75719917,7.44855652 9.90660139,7.78834741 L10.3468752,8.79185438 C10.464546,9.06157166 10.3587745,9.47936903 10.1141779,9.70677772 C9.88676923,9.91832069 9.6672934,10.1457294 9.46368329,10.3810709 C9.24552961,10.6322782 8.82905439,10.7565597 8.55537067,10.6494661 L7.54128656,10.2541452 C6.82732903,9.97517286 6.01949932,10.3308295 5.74052703,11.044787 L5.09532097,12.7014329 C4.81634868,13.4153904 5.17068315,14.2232201 5.88464068,14.5021924 L6.89740264,14.8975133 C7.17108636,15.004607 7.39452862,15.3761293 7.38395147,15.7106316 C7.37469647,16.0213354 7.38395147,16.3360055 7.40775006,16.6467093 C7.43419293,16.9785673 7.22661639,17.3593447 6.95822125,17.4783376 L5.95471428,17.9172892 C5.2539782,18.2266708 4.93269731,19.0490441 5.23943462,19.7497802 L5.95471428,21.3799832 C6.10411651,21.7197741 6.37647808,21.9815585 6.72287969,22.1177393 C7.06928131,22.2512758 7.44741436,22.2446651 7.78720526,22.0939407 L8.78939008,21.6549891 C8.95201374,21.5849155 9.17281171,21.5888819 9.37906611,21.6708548 C9.50863618,21.7210963 9.62101838,21.7964584 9.70431342,21.8863642 C9.91850068,22.115095 10.1445872,22.3345709 10.3799288,22.5368588 C10.6324582,22.7550125 10.7554176,23.1728099 10.6483239,23.4464936 L10.253003,24.4592556 C9.97403071,25.1732131 10.3296873,25.982365 11.0436448,26.2613372 L12.6989686,26.9065433 C13.4142483,27.1855156 14.222078,26.8311811 14.5010503,26.1159015 L14.8963712,25.1044616 C15.0034648,24.8294558 15.3749872,24.6060135 15.7094895,24.6179128 C16.0201932,24.6258457 16.3361855,24.6192349 16.6468893,24.5941142 C16.7685265,24.5848592 16.9047073,24.6073357 17.031633,24.6575771 C17.2405317,24.7382279 17.4071218,24.8836637 17.4771954,25.0449652 L17.9174692,26.04715 C18.0668714,26.3856187 18.339233,26.6487253 18.6856346,26.783584 C19.0320362,26.9184426 19.4088472,26.9105097 19.7499602,26.7624297 L21.3775189,26.04715 C22.0795772,25.7377684 22.3995359,24.9153951 22.0927986,24.2133369 L21.6525248,23.2111521 C21.534854,22.9414348 21.6406255,22.5223153 21.885222,22.2962287 C22.1139529,22.0846857 22.3334287,21.857277 22.5357167,21.6219355 C22.7538704,21.3680839 23.1703456,21.2464467 23.4453515,21.3535403 L24.4581134,21.7488613 C25.1733931,22.0265114 25.9812228,21.6721769 26.2588729,20.9582194 L26.9054012,19.3015735 C27.1830513,18.5862939 26.8287168,17.7784642 26.1147593,17.500814" id="Fill-1"></path>
                            </g>
                        </g>
                    </g>
                </g>
            </g>
        </g>
    </g>
</svg>