<?xml version="1.0" encoding="UTF-8"?>
<svg width="40px" height="40px" viewBox="0 0 40 40" version="1.1" xmlns="http://www.w3.org/2000/svg" xmlns:xlink="http://www.w3.org/1999/xlink">
    <!-- Generator: Sketch 49.2 (51160) - http://www.bohemiancoding.com/sketch -->
    <title>icon/sensor/co2/d</title>
    <desc>Created with Sketch.</desc>
    <defs>
        <filter x="-1.7%" y="-2.5%" width="106.9%" height="110.0%" filterUnits="objectBoundingBox" id="filter-1">
            <feOffset dx="1" dy="1" in="SourceAlpha" result="shadowOffsetOuter1"></feOffset>
            <feColorMatrix values="0 0 0 0 0   0 0 0 0 0   0 0 0 0 0  0 0 0 0.5 0" type="matrix" in="shadowOffsetOuter1" result="shadowMatrixOuter1"></feColorMatrix>
            <feMerge>
                <feMergeNode in="shadowMatrixOuter1"></feMergeNode>
                <feMergeNode in="SourceGraphic"></feMergeNode>
            </feMerge>
        </filter>
        <linearGradient x1="28.6274581%" y1="4.2668529%" x2="84.4301791%" y2="87.0793055%" id="linearGradient-2">
            <stop stop-color="#F7561A" offset="0%"></stop>
            <stop stop-color="#F64705" offset="100%"></stop>
        </linearGradient>
    </defs>
    <g id="icon/sensor/co2/d" stroke="none" stroke-width="1" fill="none" fill-rule="evenodd">
        <g id="Page-1" filter="url(#filter-1)" transform="translate(5.800000, 11.000000)" fill="url(#linearGradient-2)">
            <path d="M21.281,18.3063 L6.083,18.3063 C3.645,18.3063 1.661,16.3223 1.661,13.8843 C1.661,11.4453 3.645,9.4613 6.083,9.4613 C6.397,9.4613 6.714,9.4953 7.025,9.5633 L8.225,9.8233 L8.019,8.6123 C7.963,8.2813 7.935,7.9433 7.935,7.6083 C7.935,4.3283 10.603,1.6603 13.882,1.6603 C16.85,1.6603 19.385,3.8763 19.776,6.8133 L19.884,7.6173 L20.689,7.5293 C20.886,7.5073 21.086,7.4963 21.281,7.4963 C24.261,7.4963 26.686,9.9213 26.686,12.9013 C26.686,15.8813 24.261,18.3063 21.281,18.3063 M21.282,5.8353 C20.92,4.3203 20.095,2.9443 18.913,1.9013 C17.523,0.6753 15.737,0.0003 13.882,0.0003 C9.687,0.0003 6.274,3.4133 6.274,7.6083 C6.274,7.6733 6.275,7.7383 6.276,7.8033 C6.212,7.8013 6.148,7.8003 6.083,7.8003 C2.729,7.8003 0,10.5293 0,13.8843 C0,17.2383 2.729,19.9673 6.083,19.9673 L21.281,19.9673 C25.177,19.9673 28.346,16.7973 28.346,12.9013 C28.346,9.0053 25.177,5.8363 21.282,5.8353" id="Fill-1"></path>
            <path d="M12.591,13.8927 C12.484,14.0037 12.365,14.0937 12.237,14.1627 C12.108,14.2307 11.973,14.2817 11.833,14.3147 C11.692,14.3477 11.556,14.3637 11.424,14.3637 C11.167,14.3637 10.935,14.3117 10.729,14.2067 C10.523,14.1017 10.346,13.9597 10.199,13.7807 C10.053,13.6007 9.941,13.3947 9.863,13.1617 C9.785,12.9277 9.746,12.6857 9.746,12.4347 C9.746,12.2017 9.779,11.9717 9.845,11.7437 C9.911,11.5167 10.012,11.3127 10.15,11.1337 C10.288,10.9537 10.461,10.8077 10.671,10.6937 C10.88,10.5797 11.125,10.5227 11.406,10.5227 C11.538,10.5227 11.673,10.5367 11.81,10.5637 C11.948,10.5907 12.082,10.6387 12.214,10.7067 C12.345,10.7757 12.466,10.8657 12.577,10.9757 C12.688,11.0867 12.779,11.2257 12.851,11.3937 L13.982,10.6037 C13.766,10.1907 13.439,9.8557 12.999,9.5987 C12.56,9.3417 12.041,9.2127 11.443,9.2127 C10.94,9.2127 10.491,9.3057 10.096,9.4917 C9.701,9.6767 9.366,9.9187 9.091,10.2177 C8.816,10.5177 8.607,10.8567 8.463,11.2367 C8.32,11.6167 8.248,11.9977 8.248,12.3807 C8.248,12.7877 8.324,13.1877 8.477,13.5827 C8.629,13.9777 8.844,14.3307 9.123,14.6417 C9.401,14.9537 9.733,15.2027 10.119,15.3917 C10.505,15.5797 10.928,15.6737 11.388,15.6737 C11.652,15.6737 11.921,15.6407 12.196,15.5757 C12.471,15.5097 12.732,15.4137 12.977,15.2887 C13.222,15.1627 13.439,15.0067 13.628,14.8217 C13.816,14.6357 13.958,14.4267 14.054,14.1927 L12.851,13.4847 C12.785,13.6457 12.699,13.7827 12.591,13.8927" id="Fill-4"></path>
            <path d="M19.0925,13.13 C19.0235,13.36 18.9205,13.567 18.7825,13.749 C18.6455,13.932 18.4715,14.08 18.2625,14.193 C18.0525,14.307 17.8075,14.364 17.5265,14.364 C17.2575,14.364 17.0175,14.31 16.8085,14.202 C16.5995,14.095 16.4245,13.951 16.2835,13.772 C16.1425,13.592 16.0365,13.387 15.9655,13.157 C15.8935,12.927 15.8575,12.689 15.8575,12.443 C15.8575,12.204 15.8915,11.969 15.9605,11.739 C16.0295,11.509 16.1345,11.304 16.2745,11.124 C16.4155,10.945 16.5885,10.8 16.7955,10.689 C17.0015,10.579 17.2455,10.523 17.5265,10.523 C17.7955,10.523 18.0335,10.576 18.2395,10.68 C18.4465,10.785 18.6215,10.925 18.7645,11.102 C18.9085,11.278 19.0165,11.482 19.0885,11.712 C19.1595,11.943 19.1955,12.18 19.1955,12.425 C19.1955,12.665 19.1605,12.9 19.0925,13.13 M19.8325,10.227 C19.5575,9.922 19.2255,9.677 18.8365,9.491 C18.4475,9.306 18.0165,9.213 17.5445,9.213 C17.0835,9.213 16.6585,9.301 16.2705,9.478 C15.8815,9.654 15.5445,9.891 15.2605,10.187 C14.9765,10.483 14.7555,10.825 14.5965,11.214 C14.4385,11.603 14.3595,12.007 14.3595,12.425 C14.3595,12.838 14.4355,13.239 14.5875,13.628 C14.7405,14.017 14.9535,14.362 15.2295,14.665 C15.5045,14.966 15.8365,15.211 16.2255,15.396 C16.6135,15.581 17.0455,15.674 17.5175,15.674 C17.9785,15.674 18.4025,15.584 18.7915,15.405 C19.1805,15.225 19.5155,14.987 19.7965,14.692 C20.0775,14.395 20.2975,14.053 20.4565,13.664 C20.6145,13.275 20.6945,12.871 20.6945,12.453 C20.6945,12.052 20.6195,11.657 20.4695,11.268 C20.3205,10.879 20.1075,10.532 19.8325,10.227" id="Fill-6"></path>
            <path d="M21.7688,16.0851 C21.8178,16.0501 21.8718,16.0151 21.9288,15.9801 C21.9858,15.9441 22.0448,15.9101 22.1028,15.8771 C22.1628,15.8431 22.2128,15.8141 22.2548,15.7881 C22.3168,15.7521 22.3768,15.7111 22.4358,15.6681 C22.4948,15.6251 22.5478,15.5741 22.5958,15.5171 C22.6438,15.4591 22.6818,15.3941 22.7118,15.3211 C22.7408,15.2481 22.7558,15.1651 22.7558,15.0721 C22.7558,14.8481 22.6748,14.6701 22.5138,14.5381 C22.3518,14.4061 22.1208,14.3401 21.8168,14.3401 C21.6938,14.3401 21.5748,14.3511 21.4608,14.3741 C21.3478,14.3961 21.2438,14.4261 21.1478,14.4641 C21.0528,14.5021 20.9668,14.5451 20.8908,14.5931 C20.8148,14.6401 20.7548,14.6891 20.7098,14.7401 L21.1398,15.2371 C21.2208,15.1441 21.3048,15.0691 21.3918,15.0111 C21.4788,14.9541 21.5818,14.9251 21.6988,14.9251 C21.8028,14.9251 21.8828,14.9491 21.9388,14.9971 C21.9958,15.0441 22.0228,15.1071 22.0228,15.1861 C22.0228,15.2261 22.0118,15.2601 21.9898,15.2891 C21.9668,15.3191 21.9298,15.3521 21.8778,15.3881 C21.8268,15.4251 21.7558,15.4671 21.6678,15.5151 C21.5798,15.5631 21.4688,15.6231 21.3368,15.6951 C21.2138,15.7661 21.1108,15.8371 21.0298,15.9101 C20.9488,15.9831 20.8838,16.0631 20.8358,16.1481 C20.7888,16.2331 20.7548,16.3281 20.7348,16.4321 C20.7158,16.5361 20.7058,16.6541 20.7058,16.7861 L22.8018,16.7861 L22.8018,16.1801 L21.6568,16.1801 C21.6828,16.1511 21.7198,16.1201 21.7688,16.0851" id="Fill-8"></path>
        </g>
    </g>
</svg>