<?xml version="1.0" encoding="UTF-8"?>
<svg width="327px" height="400px" viewBox="0 0 327 400" version="1.1" xmlns="http://www.w3.org/2000/svg" xmlns:xlink="http://www.w3.org/1999/xlink">
    <!-- Generator: Sketch 49.2 (51160) - http://www.bohemiancoding.com/sketch -->
    <title>card/dashboard/list</title>
    <desc>Created with Sketch.</desc>
    <defs>
        <polygon id="path-1" points="0 0 223.828877 0 327 0 327 100 0 100"></polygon>
        <filter x="-0.2%" y="-0.5%" width="100.3%" height="102.0%" filterUnits="objectBoundingBox" id="filter-3">
            <feOffset dx="0" dy="1" in="SourceAlpha" result="shadowOffsetOuter1"></feOffset>
            <feColorMatrix values="0 0 0 0 0   0 0 0 0 0   0 0 0 0 0  0 0 0 0.12 0" type="matrix" in="shadowOffsetOuter1"></feColorMatrix>
        </filter>
        <rect id="path-4" x="0" y="0" width="156" height="60"></rect>
        <linearGradient x1="50%" y1="69.6599676%" x2="50%" y2="-3.20950905%" id="linearGradient-6">
            <stop stop-color="#100EF5F" stop-opacity="-0.181841919" offset="0%"></stop>
            <stop stop-color="#FFE85D" stop-opacity="0" offset="0%"></stop>
            <stop stop-color="#FBC450" offset="100%"></stop>
        </linearGradient>
        <linearGradient x1="77.3164647%" y1="22.4584688%" x2="2.63227388%" y2="17.9433501%" id="linearGradient-7">
            <stop stop-color="#FFE85D" offset="0%"></stop>
            <stop stop-color="#D09B2C" offset="100%"></stop>
        </linearGradient>
        <path d="M-34.5078125,35.9023438 C-26.2185571,28.8161575 14.2541282,11.1448479 29.5514982,19.4030481 C44.8488682,27.6612483 49.0359141,15.787016 66.2493248,15.787016 C83.4627355,15.787016 93.7837731,30.511064 104.466797,22.1855469 C115.149821,13.8600297 130.897824,11.1702028 146.376953,19.4030481 C161.856082,27.6358934 163.475179,13.1437448 190.767578,8.96484375 C218.059977,4.78594266 193.870045,78.2847523 193.870045,78.2847523 L-36.6542969,76 C-36.6542969,76 -42.7970679,42.98853 -34.5078125,35.9023438 Z" id="path-8"></path>
        <filter x="-8.2%" y="-27.3%" width="116.5%" height="157.6%" filterUnits="objectBoundingBox" id="filter-9">
            <feMorphology radius="4" operator="dilate" in="SourceAlpha" result="shadowSpreadOuter1"></feMorphology>
            <feOffset dx="0" dy="1" in="shadowSpreadOuter1" result="shadowOffsetOuter1"></feOffset>
            <feMorphology radius="4" operator="erode" in="SourceAlpha" result="shadowInner"></feMorphology>
            <feOffset dx="0" dy="1" in="shadowInner" result="shadowInner"></feOffset>
            <feComposite in="shadowOffsetOuter1" in2="shadowInner" operator="out" result="shadowOffsetOuter1"></feComposite>
            <feGaussianBlur stdDeviation="4.5" in="shadowOffsetOuter1" result="shadowBlurOuter1"></feGaussianBlur>
            <feColorMatrix values="0 0 0 0 0.90196079   0 0 0 0 0.752941191   0 0 0 0 0.262745112  0 0 0 1 0" type="matrix" in="shadowBlurOuter1"></feColorMatrix>
        </filter>
        <linearGradient x1="50%" y1="90.1884191%" x2="50%" y2="-12.4502145%" id="linearGradient-10">
            <stop stop-color="#00CD94" offset="0%"></stop>
            <stop stop-color="#8BE8CB" offset="100%"></stop>
        </linearGradient>
        <circle id="path-11" cx="25" cy="25" r="25"></circle>
        <path d="M21.1116263,6.76012422 C27.0419573,16.1500773 30,22.4406492 30,25.9154984 C30,31.3359594 25.5263511,35.7361963 20,35.7361963 C14.4736489,35.7361963 10,31.3359594 10,25.9154984 C10,22.4406492 12.9580427,16.1500773 18.8883737,6.76012422 L20,5 L21.1116263,6.76012422 Z M20,9.86778939 C15.0763116,17.8574368 12.6086957,23.2832909 12.6086957,25.9154984 C12.6086957,29.9423735 15.9213989,33.2007157 20,33.2007157 C24.0786011,33.2007157 27.3913043,29.9423735 27.3913043,25.9154984 C27.3913043,23.2832909 24.9236884,17.8574368 20,9.86778939 Z M19.2633848,28.8195984 C17.4683065,28.4023042 16.3426798,26.5737969 16.7499789,24.7346675 C17.157278,22.8955382 18.9434699,21.7438061 20.7385482,22.1611004 C22.5321455,22.5783946 23.6562911,24.4069019 23.2504731,26.2460313 C22.8431739,28.0851606 21.0584632,29.2368926 19.2633848,28.8195984 Z" id="path-13"></path>
        <polygon id="path-15" points="0 0 223.828877 0 327 0 327 100 0 100"></polygon>
        <filter x="-0.2%" y="-0.5%" width="100.3%" height="102.0%" filterUnits="objectBoundingBox" id="filter-17">
            <feOffset dx="0" dy="1" in="SourceAlpha" result="shadowOffsetOuter1"></feOffset>
            <feColorMatrix values="0 0 0 0 0   0 0 0 0 0   0 0 0 0 0  0 0 0 0.12 0" type="matrix" in="shadowOffsetOuter1"></feColorMatrix>
        </filter>
        <rect id="path-18" x="0" y="0" width="156" height="60"></rect>
        <linearGradient x1="50%" y1="36.687748%" x2="50%" y2="-7.04371514%" id="linearGradient-20">
            <stop stop-color="#FFE85D" offset="0%"></stop>
            <stop stop-color="#D09B2C" offset="100%"></stop>
        </linearGradient>
        <path d="M-4,46.9667969 C-4,46.9667969 5.83398437,42.4485628 25.2792969,42.4485628 C44.7246094,42.4485628 50.3334643,52.9455688 67.546875,52.9455688 C84.7602857,52.9455688 90.2994311,50.7740799 100.982455,42.4485628 C111.665479,34.1230456 129.007199,28.8002812 144.486328,37.0331266 C159.965457,45.2659719 166.577645,41.2120277 193.870045,37.0331266 C221.162444,32.8542255 193.870045,78.2847523 193.870045,78.2847523 L-4,79 L-4,46.9667969 Z" id="path-21"></path>
        <filter x="-4.8%" y="-21.7%" width="109.5%" height="143.4%" filterUnits="objectBoundingBox" id="filter-22">
            <feMorphology radius="3" operator="dilate" in="SourceAlpha" result="shadowSpreadOuter1"></feMorphology>
            <feOffset dx="0" dy="0" in="shadowSpreadOuter1" result="shadowOffsetOuter1"></feOffset>
            <feMorphology radius="3" operator="erode" in="SourceAlpha" result="shadowInner"></feMorphology>
            <feOffset dx="0" dy="0" in="shadowInner" result="shadowInner"></feOffset>
            <feComposite in="shadowOffsetOuter1" in2="shadowInner" operator="out" result="shadowOffsetOuter1"></feComposite>
            <feGaussianBlur stdDeviation="1" in="shadowOffsetOuter1" result="shadowBlurOuter1"></feGaussianBlur>
            <feColorMatrix values="0 0 0 0 0.815686275   0 0 0 0 0.607843137   0 0 0 0 0.17254902  0 0 0 0.5 0" type="matrix" in="shadowBlurOuter1"></feColorMatrix>
        </filter>
        <linearGradient x1="50%" y1="5.96660539%" x2="50%" y2="100%" id="linearGradient-23">
            <stop stop-color="#FFFFFF" offset="0%"></stop>
            <stop stop-color="#CF001F" offset="100%"></stop>
        </linearGradient>
        <circle id="path-24" cx="25" cy="25" r="25"></circle>
        <polygon id="path-26" points="0 0 223.828877 0 327 0 327 100 0 100"></polygon>
        <filter x="-0.2%" y="-0.5%" width="100.3%" height="102.0%" filterUnits="objectBoundingBox" id="filter-28">
            <feOffset dx="0" dy="1" in="SourceAlpha" result="shadowOffsetOuter1"></feOffset>
            <feColorMatrix values="0 0 0 0 0   0 0 0 0 0   0 0 0 0 0  0 0 0 0.12 0" type="matrix" in="shadowOffsetOuter1"></feColorMatrix>
        </filter>
        <rect id="path-29" x="0" y="0" width="156" height="60"></rect>
        <path d="M-12.6386719,37.2988281 C-12.6386719,37.2988281 1.67773438,18.6518311 23.28125,25.1588943 C44.8847656,31.6659574 48.7636719,34.6289063 59.6777344,31.6796875 C70.5917969,28.7304688 78.2157905,23.402247 90.140625,15.2089844 C107.685547,3.15429688 122.631891,10.9904011 137.036664,18.6518311 C152.515794,26.8846765 166.577645,29.3377954 193.870045,25.1588943 C221.162444,20.9799932 193.870045,78.2847523 193.870045,78.2847523 L-4,79 L-12.6386719,37.2988281 Z" id="path-31"></path>
        <filter x="-4.8%" y="-13.6%" width="109.6%" height="130.0%" filterUnits="objectBoundingBox" id="filter-32">
            <feMorphology radius="1" operator="dilate" in="SourceAlpha" result="shadowSpreadOuter1"></feMorphology>
            <feOffset dx="0" dy="1" in="shadowSpreadOuter1" result="shadowOffsetOuter1"></feOffset>
            <feMorphology radius="1" operator="erode" in="SourceAlpha" result="shadowInner"></feMorphology>
            <feOffset dx="0" dy="1" in="shadowInner" result="shadowInner"></feOffset>
            <feComposite in="shadowOffsetOuter1" in2="shadowInner" operator="out" result="shadowOffsetOuter1"></feComposite>
            <feGaussianBlur stdDeviation="3" in="shadowOffsetOuter1" result="shadowBlurOuter1"></feGaussianBlur>
            <feColorMatrix values="0 0 0 0 0.815686275   0 0 0 0 0.607843137   0 0 0 0 0.17254902  0 0 0 0.8 0" type="matrix" in="shadowBlurOuter1"></feColorMatrix>
        </filter>
        <circle id="path-33" cx="25" cy="25" r="25"></circle>
        <path d="M21.1116263,6.76012422 C27.0419573,16.1500773 30,22.4406492 30,25.9154984 C30,31.3359594 25.5263511,35.7361963 20,35.7361963 C14.4736489,35.7361963 10,31.3359594 10,25.9154984 C10,22.4406492 12.9580427,16.1500773 18.8883737,6.76012422 L20,5 L21.1116263,6.76012422 Z M19.2633848,28.8195984 C21.0584632,29.2368926 22.8431739,28.0851606 23.2504731,26.2460313 C23.6562911,24.4069019 22.5321455,22.5783946 20.7385482,22.1611004 C18.9434699,21.7438061 17.157278,22.8955382 16.7499789,24.7346675 C16.3426798,26.5737969 17.4683065,28.4023042 19.2633848,28.8195984 Z" id="path-35"></path>
        <polygon id="path-37" points="0 0 223.828877 0 327 0 327 100 0 100"></polygon>
        <filter x="-0.2%" y="-0.5%" width="100.3%" height="102.0%" filterUnits="objectBoundingBox" id="filter-39">
            <feOffset dx="0" dy="1" in="SourceAlpha" result="shadowOffsetOuter1"></feOffset>
            <feColorMatrix values="0 0 0 0 0   0 0 0 0 0   0 0 0 0 0  0 0 0 0.12 0" type="matrix" in="shadowOffsetOuter1"></feColorMatrix>
        </filter>
        <rect id="path-40" x="0" y="0" width="154" height="60"></rect>
        <path d="M-4,47.3082619 C-4,47.3082619 14.2541282,20.5167262 29.5514982,28.7749264 C44.8488682,37.0331266 49.0359141,25.1588943 66.2493248,25.1588943 C83.4627355,25.1588943 88.580236,39.8829423 99.2632597,31.5574252 C109.946283,23.231908 121.557535,10.4189858 137.036664,18.6518311 C152.515794,26.8846765 166.577645,41.2120277 193.870045,37.0331266 C221.162444,32.8542255 193.870045,78.2847523 193.870045,78.2847523 L-4,79 L-4,47.3082619 Z" id="path-42"></path>
        <filter x="-3.3%" y="-11.1%" width="106.7%" height="122.2%" filterUnits="objectBoundingBox" id="filter-43">
            <feMorphology radius="3" operator="dilate" in="SourceAlpha" result="shadowSpreadOuter1"></feMorphology>
            <feOffset dx="0" dy="0" in="shadowSpreadOuter1" result="shadowOffsetOuter1"></feOffset>
            <feMorphology radius="3" operator="erode" in="SourceAlpha" result="shadowInner"></feMorphology>
            <feOffset dx="0" dy="0" in="shadowInner" result="shadowInner"></feOffset>
            <feComposite in="shadowOffsetOuter1" in2="shadowInner" operator="out" result="shadowOffsetOuter1"></feComposite>
            <feColorMatrix values="0 0 0 0 0.815686275   0 0 0 0 0.607843137   0 0 0 0 0.17254902  0 0 0 0.4 0" type="matrix" in="shadowOffsetOuter1"></feColorMatrix>
        </filter>
        <circle id="path-44" cx="25" cy="25" r="25"></circle>
        <path d="M7.75862188,18.1928202 C6.34971299,18.5225019 5.17775203,19.6484395 4.83663489,21.188504 C4.36249699,23.3291262 5.67284173,25.4573851 7.76249676,25.9430873 C9.85215179,26.4287895 11.9297378,25.0882514 12.4038757,22.9476292 C12.8760616,20.8080398 11.5689313,18.6808018 9.4827597,18.19375 L9.4827597,10.5279472 C9.4827597,10.0518396 9.0967983,9.66587825 8.62069079,9.66587825 C8.14458328,9.66587825 7.75862188,10.0518396 7.75862188,10.5279472 L7.75862188,18.1928202 Z M6.60318649,0 L10.637669,0 C12.3807723,0 13.7928412,1.44650957 13.7928412,3.23212761 L13.7928412,15.0433993 C15.8738755,16.6559307 17.2411168,19.1868809 17.2411168,22.0675367 C17.2411168,26.9457533 13.3824964,30.8984865 8.62042773,30.8984865 C8.0169795,30.8984865 7.39801403,30.8349036 6.77387614,30.7024394 C3.42560051,29.992431 0.761807589,27.1629947 0.148014528,23.7189243 C-0.486468186,20.1688825 0.975600678,16.9579492 3.4480143,15.0433993 L3.4480143,3.23212761 C3.4480143,1.44650957 4.86008317,0 6.60318649,0 Z M20.7106815,0.834928483 L24.116905,0.834928483 C24.6046249,0.834928483 25,1.23030357 25,1.71802346 C25,2.20574335 24.6046249,2.60111844 24.116905,2.60111844 L20.7106815,2.60111844 C20.2229617,2.60111844 19.8275866,2.20574335 19.8275866,1.71802346 C19.8275866,1.23030357 20.2229617,0.834928483 20.7106815,0.834928483 Z M20.7106815,6.13349834 L24.116905,6.13349834 C24.6046249,6.13349834 25,6.52887343 25,7.01659332 C25,7.50431321 24.6046249,7.8996883 24.116905,7.8996883 L20.7106815,7.8996883 C20.2229617,7.8996883 19.8275866,7.50431321 19.8275866,7.01659332 C19.8275866,6.52887343 20.2229617,6.13349834 20.7106815,6.13349834 Z M20.7106815,11.4320682 L24.116905,11.4320682 C24.6046249,11.4320682 25,11.8274433 25,12.3151632 C25,12.8028831 24.6046249,13.1982582 24.116905,13.1982582 L20.7106815,13.1982582 C20.2229617,13.1982582 19.8275866,12.8028831 19.8275866,12.3151632 C19.8275866,11.8274433 20.2229617,11.4320682 20.7106815,11.4320682 Z" id="path-46"></path>
    </defs>
    <g id="card/dashboard/list" stroke="none" stroke-width="1" fill="none" fill-rule="evenodd">
        <g id="4" transform="translate(0.000000, 300.000000)">
            <mask id="mask-2" fill="white">
                <use xlink:href="#path-1"></use>
            </mask>
            <g id="Rectangle-2">
                <use fill="black" fill-opacity="1" filter="url(#filter-3)" xlink:href="#path-1"></use>
                <use fill="#FFFFFF" fill-rule="evenodd" xlink:href="#path-1"></use>
            </g>
            <g id="chart" mask="url(#mask-2)">
                <g transform="translate(157.000000, 24.000000)">
                    <mask id="mask-5" fill="white">
                        <use xlink:href="#path-4"></use>
                    </mask>
                    <use id="Rectangle" stroke="none" fill="#FFFFFF" fill-rule="evenodd" xlink:href="#path-4"></use>
                    <path d="M-3.45117187,22.1855469 C-3.45117187,22.1855469 14.2541282,11.1448479 29.5514982,19.4030481 C44.8488682,27.6612483 49.0359141,15.787016 66.2493248,15.787016 C83.4627355,15.787016 93.7837731,30.511064 104.466797,22.1855469 C115.149821,13.8600297 130.897824,11.1702028 146.376953,19.4030481 C161.856082,27.6358934 163.475179,13.1437448 190.767578,8.96484375 C218.059977,4.78594266 193.870045,78.2847523 193.870045,78.2847523 L-4,79 L-3.45117187,22.1855469 Z" id="Path-11" stroke="none" fill-opacity="0.2" fill="url(#linearGradient-6)" fill-rule="evenodd" mask="url(#mask-5)"></path>
                    <g id="Path-11" stroke="none" fill="none" mask="url(#mask-5)">
                        <!--<use fill="black" fill-opacity="1" filter="url(#filter-9)" xlink:href="#path-8"></use>-->
                        <use stroke="url(#linearGradient-7)" stroke-width="6" xlink:href="#path-8"></use>
                    </g>
                </g>
            </g>
            <text id="30%" mask="url(#mask-2)" font-family="SFUIDisplay-Medium, SF UI Display" font-size="32" font-weight="400" line-spacing="30" letter-spacing="-0.426666617" fill="#473F2A">
                <tspan x="76" y="72">30%</tspan>
            </text>
            <text id="空气湿度" mask="url(#mask-2)" font-family="NotoSansCJKtc-Regular, Noto Sans CJK TC" font-size="12" font-weight="normal" line-spacing="12" fill="#473F2A" fill-opacity="0.6">
                <tspan x="76" y="36">空气湿度</tspan>
            </text>
            <g id="icon/sensor" mask="url(#mask-2)">
                <g transform="translate(16.000000, 22.000000)">
                    <mask id="mask-12" fill="white">
                        <use xlink:href="#path-11"></use>
                    </mask>
                    <g id="oval" stroke="none" fill="none">
                        <use fill="url(#linearGradient-10)" fill-rule="evenodd" xlink:href="#path-11"></use>
                        <circle stroke="#FFFFFF" stroke-width="1.5" cx="25" cy="25" r="24.25"></circle>
                    </g>
                    <g id="icon/sensor/airMoist" stroke="none" stroke-width="1" fill="none" fill-rule="evenodd" mask="url(#mask-12)">
                        <g transform="translate(5.000000, 5.000000)">
                            <mask id="mask-14" fill="white">
                                <use xlink:href="#path-13"></use>
                            </mask>
                            <use id="Rectangle" stroke="none" fill="#FFFFFF" fill-rule="nonzero" xlink:href="#path-13"></use>
                        </g>
                    </g>
                </g>
            </g>
        </g>
        <g id="3" transform="translate(0.000000, 200.000000)">
            <mask id="mask-16" fill="white">
                <use xlink:href="#path-15"></use>
            </mask>
            <g id="Rectangle-2">
                <use fill="black" fill-opacity="1" filter="url(#filter-17)" xlink:href="#path-15"></use>
                <use fill="#FFFFFF" fill-rule="evenodd" xlink:href="#path-15"></use>
            </g>
            <g id="chart" mask="url(#mask-16)">
                <g transform="translate(157.000000, 24.000000)">
                    <mask id="mask-19" fill="white">
                        <use xlink:href="#path-18"></use>
                    </mask>
                    <use id="Rectangle" stroke="none" fill="#FFFFFF" fill-rule="evenodd" xlink:href="#path-18"></use>
                    <path d="M-20.6640625,49.0292969 C-20.6640625,49.0292969 6.83398437,42.5307932 26.2792969,42.5307932 C45.7246094,42.5307932 51.3334643,53.0277992 68.546875,53.0277992 C85.7602857,53.0277992 91.2994311,50.8563103 101.982455,42.5307932 C112.665479,34.205276 130.007199,28.8825116 145.486328,37.1153569 C160.965457,45.3482023 167.577645,41.294258 194.870045,37.1153569 C222.162444,32.9364558 194.870045,78.3669827 194.870045,78.3669827 C194.870045,78.3669827 21.3346803,87.7098667 -20.6640625,81.0625 C-62.6628053,74.4151333 -20.6640625,49.0292969 -20.6640625,49.0292969 Z" id="Path-11" stroke="none" fill-opacity="0.2" fill="url(#linearGradient-6)" fill-rule="evenodd" mask="url(#mask-19)"></path>
                    <g id="Path-11" stroke="none" fill="none" mask="url(#mask-19)">
                        <use fill="black" fill-opacity="1" filter="url(#filter-22)" xlink:href="#path-21"></use>
                        <use stroke="url(#linearGradient-20)" stroke-width="2" xlink:href="#path-21"></use>
                    </g>
                </g>
            </g>
            <text id="26°" mask="url(#mask-16)" font-family="SFUIDisplay-Medium, SF UI Display" font-size="32" font-weight="400" line-spacing="30" letter-spacing="-0.4266666" fill="#473F2A">
                <tspan x="76" y="72">26°</tspan>
            </text>
            <text id="空气温度" mask="url(#mask-16)" font-family="NotoSansCJKtc-Regular, Noto Sans CJK TC" font-size="12" font-weight="normal" line-spacing="12" fill="#473F2A" fill-opacity="0.6">
                <tspan x="76" y="36">空气温度</tspan>
            </text>
            <text id="一週平均土温" mask="url(#mask-16)" font-family="PingFangSC-Regular, PingFang SC" font-size="10" font-weight="normal" fill="#000000" fill-opacity="0.54">
                <tspan x="16" y="149">一週平均土温</tspan>
            </text>
            <text id="25-℃" mask="url(#mask-16)" font-family="SFUIDisplay-Regular, SF UI Display" font-size="10" font-weight="normal" fill="#000000" fill-opacity="0.54">
                <tspan x="122" y="148">25 </tspan>
                <tspan x="135.901367" y="148" font-family="LucidaGrande, Lucida Grande">℃</tspan>
            </text>
            <g id="icon/sensor" mask="url(#mask-16)">
                <g transform="translate(16.000000, 22.000000)">
                    <g id="dot/error">
                        <mask id="mask-25" fill="white">
                            <use xlink:href="#path-24"></use>
                        </mask>
                        <g id="oval">
                            <use fill="#FF3B56" fill-rule="evenodd" xlink:href="#path-24"></use>
                            <use fill-opacity="0.6" fill="url(#linearGradient-23)" fill-rule="evenodd" style="mix-blend-mode: overlay;" xlink:href="#path-24"></use>
                            <circle stroke="#FFFFFF" stroke-width="1.5" cx="25" cy="25" r="24.25"></circle>
                        </g>
                    </g>
                    <g id="icon/sensor/airTemp" transform="translate(5.000000, 5.000000)">
                        <path d="M14.9709603,4 L19.230149,4 C21.0703369,4 22.5610529,5.53644352 22.5610529,7.43307893 L22.5610529,19.9786937 C24.7579934,21.6914811 26.2013851,24.3797883 26.2013851,27.4395434 C26.2013851,32.6210537 22.1278534,36.8195404 17.1005546,36.8195404 C16.4634965,36.8195404 15.8100569,36.7520045 15.1511567,36.6113045 C11.6163942,35.8571527 8.80423754,32.8518017 8.15625841,29.1936028 C7.48643728,25.422844 9.02993813,22.012277 11.6400563,19.9786937 L11.6400563,7.43307893 C11.6400563,5.53644352 13.1307724,4 14.9709603,4 Z M19.8308038,7.43307893 C19.8308038,7.09164704 19.5614192,6.81399913 19.230149,6.81399913 L14.9709603,6.81399913 C14.6396901,6.81399913 14.3703055,7.09164704 14.3703055,7.43307893 L14.3703055,21.3800652 L13.2854865,22.224265 C11.3087861,23.7625845 10.3950627,26.1788717 10.8410034,28.685207 C11.2905844,31.2140542 13.2891268,33.3395615 15.7044872,33.8554614 C16.1704497,33.9548893 16.6400526,34.0055413 17.1005546,34.0055413 C20.6134752,34.0055413 23.471136,31.0602222 23.471136,27.4395434 C23.471136,25.390952 22.5392109,23.4886886 20.9156228,22.224265 L19.8308038,21.3800652 L19.8308038,7.43307893 Z M16.2406482,23.7327688 L16.2406482,16.2570413 C16.2406482,15.7800483 16.6158191,15.3933691 17.0786158,15.3933691 C17.5414125,15.3933691 17.9165834,15.7800483 17.9165834,16.2570413 L17.9165834,23.7336782 C19.9444308,24.2100177 21.2150169,26.2904691 20.7560323,28.3830002 C20.2951501,30.4765414 18.2756482,31.7875957 16.2444148,31.312576 C14.2131813,30.8375563 12.9394706,28.7561065 13.4003528,26.6625653 C13.7319331,25.1563732 14.8711289,24.0551995 16.2406482,23.7327688 Z M28.8358666,6.46810797 L32.1363279,6.46810797 C32.6133208,6.46810797 33,6.85478714 33,7.33178008 C33,7.80877302 32.6133208,8.1954522 32.1363279,8.1954522 L28.8358666,8.1954522 C28.3588736,8.1954522 27.9721945,7.80877302 27.9721945,7.33178008 C27.9721945,6.85478714 28.3588736,6.46810797 28.8358666,6.46810797 Z M28.8358666,11.6501407 L32.1363279,11.6501407 C32.6133208,11.6501407 33,12.0368198 33,12.5138128 C33,12.9908057 32.6133208,13.3774849 32.1363279,13.3774849 L28.8358666,13.3774849 C28.3588736,13.3774849 27.9721945,12.9908057 27.9721945,12.5138128 C27.9721945,12.0368198 28.3588736,11.6501407 28.8358666,11.6501407 Z M28.8358666,16.8321734 L32.1363279,16.8321734 C32.6133208,16.8321734 33,17.2188525 33,17.6958455 C33,18.1728384 32.6133208,18.5595176 32.1363279,18.5595176 L28.8358666,18.5595176 C28.3588736,18.5595176 27.9721945,18.1728384 27.9721945,17.6958455 C27.9721945,17.2188525 28.3588736,16.8321734 28.8358666,16.8321734 Z" id="Combined-Shape" fill="#FFFFFF"></path>
                    </g>
                </g>
            </g>
        </g>
        <g id="2" transform="translate(0.000000, 100.000000)">
            <mask id="mask-27" fill="white">
                <use xlink:href="#path-26"></use>
            </mask>
            <g id="Rectangle-2">
                <use fill="black" fill-opacity="1" filter="url(#filter-28)" xlink:href="#path-26"></use>
                <use fill="#FFFFFF" fill-rule="evenodd" xlink:href="#path-26"></use>
            </g>
            <g id="chart" mask="url(#mask-27)">
                <g transform="translate(157.000000, 24.000000)">
                    <mask id="mask-30" fill="white">
                        <use xlink:href="#path-29"></use>
                    </mask>
                    <use id="Rectangle" stroke="none" fill="#FFFFFF" fill-rule="evenodd" xlink:href="#path-29"></use>
                    <path d="M-12.6386719,37.2988281 C-12.6386719,37.2988281 1.67773438,18.6518311 23.28125,25.1588943 C44.8847656,31.6659574 48.7636719,34.6289063 59.6777344,31.6796875 C70.5917969,28.7304688 78.2157905,23.402247 90.140625,15.2089844 C107.685547,3.15429688 122.631891,10.9904011 137.036664,18.6518311 C152.515794,26.8846765 166.577645,29.3377954 193.870045,25.1588943 C221.162444,20.9799932 193.870045,78.2847523 193.870045,78.2847523 L-4,79 L-12.6386719,37.2988281 Z" id="Path-11" stroke="none" fill-opacity="0.2" fill="url(#linearGradient-6)" fill-rule="evenodd" mask="url(#mask-30)"></path>
                    <g id="Path-11" stroke="none" fill="none" mask="url(#mask-30)">
                        <use fill="black" fill-opacity="1" filter="url(#filter-32)" xlink:href="#path-31"></use>
                        <use stroke="url(#linearGradient-20)" stroke-width="2" xlink:href="#path-31"></use>
                    </g>
                </g>
            </g>
            <text id="66%" mask="url(#mask-27)" font-family="SFUIDisplay-Medium, SF UI Display" font-size="32" font-weight="400" line-spacing="30" letter-spacing="-0.426666617" fill="#473F2A">
                <tspan x="76" y="72">66%</tspan>
            </text>
            <text id="土壤湿度" mask="url(#mask-27)" font-family="NotoSansCJKtc-Regular, Noto Sans CJK TC" font-size="12" font-weight="normal" line-spacing="12" fill="#473F2A" fill-opacity="0.6">
                <tspan x="76" y="36">土壤湿度</tspan>
            </text>
            <text id="一週平均土温" mask="url(#mask-27)" font-family="PingFangSC-Regular, PingFang SC" font-size="10" font-weight="normal" fill="#000000" fill-opacity="0.54">
                <tspan x="16" y="149">一週平均土温</tspan>
            </text>
            <text id="25-℃" mask="url(#mask-27)" font-family="SFUIDisplay-Regular, SF UI Display" font-size="10" font-weight="normal" fill="#000000" fill-opacity="0.54">
                <tspan x="122" y="148">25 </tspan>
                <tspan x="135.901367" y="148" font-family="LucidaGrande, Lucida Grande">℃</tspan>
            </text>
            <g id="icon/sensor" mask="url(#mask-27)">
                <g transform="translate(16.000000, 22.000000)">
                    <mask id="mask-34" fill="white">
                        <use xlink:href="#path-33"></use>
                    </mask>
                    <g id="oval" stroke="none" fill="none">
                        <use fill="url(#linearGradient-10)" fill-rule="evenodd" xlink:href="#path-33"></use>
                        <circle stroke="#FFFFFF" stroke-width="1.5" cx="25" cy="25" r="24.25"></circle>
                    </g>
                    <g id="icon/sensor/soilMoist" stroke="none" stroke-width="1" fill="none" fill-rule="evenodd" mask="url(#mask-34)">
                        <g transform="translate(5.000000, 5.000000)">
                            <mask id="mask-36" fill="white">
                                <use xlink:href="#path-35"></use>
                            </mask>
                            <use id="Combined-Shape" stroke="none" fill="#FFFFFF" fill-rule="nonzero" xlink:href="#path-35"></use>
                        </g>
                    </g>
                </g>
            </g>
        </g>
        <g id="1">
            <mask id="mask-38" fill="white">
                <use xlink:href="#path-37"></use>
            </mask>
            <g id="Rectangle-2">
                <use fill="black" fill-opacity="1" filter="url(#filter-39)" xlink:href="#path-37"></use>
                <use fill="#FFFFFF" fill-rule="evenodd" xlink:href="#path-37"></use>
            </g>
            <g id="chart" mask="url(#mask-38)">
                <g transform="translate(157.000000, 24.000000)">
                    <mask id="mask-41" fill="white">
                        <use xlink:href="#path-40"></use>
                    </mask>
                    <use id="Rectangle" stroke="none" fill="#FFFFFF" fill-rule="evenodd" xlink:href="#path-40"></use>
                    <path d="M-4,47.3082619 C-4,47.3082619 14.2541282,20.5167262 29.5514982,28.7749264 C44.8488682,37.0331266 49.0359141,25.1588943 66.2493248,25.1588943 C83.4627355,25.1588943 88.580236,39.8829423 99.2632597,31.5574252 C109.946283,23.231908 121.557535,10.4189858 137.036664,18.6518311 C152.515794,26.8846765 166.577645,41.2120277 193.870045,37.0331266 C221.162444,32.8542255 193.870045,78.2847523 193.870045,78.2847523 L-4,79 L-4,47.3082619 Z" id="Path-11" stroke="none" fill-opacity="0.2" fill="url(#linearGradient-6)" fill-rule="evenodd" mask="url(#mask-41)"></path>
                    <g id="Path-11" stroke="none" fill="none" mask="url(#mask-41)">
                        <use fill="black" fill-opacity="1" filter="url(#filter-43)" xlink:href="#path-42"></use>
                        <use stroke="url(#linearGradient-20)" stroke-width="2" xlink:href="#path-42"></use>
                    </g>
                </g>
            </g>
            <text id="22°" mask="url(#mask-38)" font-family="SFUIDisplay-Medium, SF UI Display" font-size="32" font-weight="400" line-spacing="30" letter-spacing="-0.4266666" fill="#473F2A">
                <tspan x="76" y="72">22°</tspan>
            </text>
            <text id="土壤温度" mask="url(#mask-38)" font-family="NotoSansCJKtc-Regular, Noto Sans CJK TC" font-size="12" font-weight="normal" line-spacing="12" fill="#473F2A" fill-opacity="0.6">
                <tspan x="76" y="36">土壤温度</tspan>
            </text>
            <text id="一週平均土温" mask="url(#mask-38)" font-family="PingFangSC-Regular, PingFang SC" font-size="10" font-weight="normal" fill="#000000" fill-opacity="0.54">
                <tspan x="16" y="149">一週平均土温</tspan>
            </text>
            <text id="25-℃" mask="url(#mask-38)" font-family="SFUIDisplay-Regular, SF UI Display" font-size="10" font-weight="normal" fill="#000000" fill-opacity="0.54">
                <tspan x="122" y="148">25 </tspan>
                <tspan x="135.901367" y="148" font-family="LucidaGrande, Lucida Grande">℃</tspan>
            </text>
            <g id="icon/sensor" mask="url(#mask-38)">
                <g transform="translate(16.000000, 22.000000)">
                    <g id="dot/normal">
                        <mask id="mask-45" fill="white">
                            <use xlink:href="#path-44"></use>
                        </mask>
                        <g id="oval">
                            <use fill="url(#linearGradient-10)" fill-rule="evenodd" xlink:href="#path-44"></use>
                            <circle stroke="#FFFFFF" stroke-width="1.5" cx="25" cy="25" r="24.25"></circle>
                        </g>
                    </g>
                    <g id="icon/sensor/soilTemp" transform="translate(13.000000, 10.000000)">
                        <mask id="mask-47" fill="white">
                            <use xlink:href="#path-46"></use>
                        </mask>
                        <use id="Combined-Shape" fill="#FFFFFF" xlink:href="#path-46"></use>
                    </g>
                </g>
            </g>
        </g>
    </g>
</svg>