<?xml version="1.0" encoding="UTF-8"?>
<svg width="100px" height="100px" viewBox="0 0 100 100" version="1.1" xmlns="http://www.w3.org/2000/svg" xmlns:xlink="http://www.w3.org/1999/xlink">
    <!-- Generator: Sketch 49.2 (51160) - http://www.bohemiancoding.com/sketch -->
    <title>btn/tff_fan/on copy 2</title>
    <desc>Created with Sketch.</desc>
    <defs>
        <linearGradient x1="87.375%" y1="20.2324219%" x2="20.1738281%" y2="87.2578125%" id="linearGradient-1">
            <stop stop-color="#CF9A2C" offset="0%"></stop>
            <stop stop-color="#FFE85D" offset="100%"></stop>
        </linearGradient>
        <polygon id="path-2" points="64.2857143 0.0686049107 64.2857143 19.1458929 3.76674107e-05 19.1458929 3.76674107e-05 0.0686049107"></polygon>
        <linearGradient x1="7.56426796%" y1="3.2063606%" x2="89.3104354%" y2="118.930735%" id="linearGradient-4">
            <stop stop-color="#FFE85D" offset="0%"></stop>
            <stop stop-color="#CF9A2C" offset="100%"></stop>
        </linearGradient>
        <linearGradient x1="5.29933725%" y1="0%" x2="90.4817708%" y2="120.588942%" id="linearGradient-5">
            <stop stop-color="#FFE85D" offset="0%"></stop>
            <stop stop-color="#CF9A2C" offset="100%"></stop>
        </linearGradient>
        <polygon id="path-6" points="0 19.0847712 0 0.00823660714 54.1091727 0.00823660714 54.1091727 19.0847712"></polygon>
    </defs>
    <g id="btn/tff_fan/on-copy-2" stroke="none" stroke-width="1" fill="none" fill-rule="evenodd">
        <g id="btn_tff_fan_off">
            <circle id="Oval" stroke="url(#linearGradient-1)" stroke-width="5" cx="50" cy="50" r="47.5"></circle>
            <g id="icon_tff_fan" transform="translate(17.857143, 25.000000)">
                <g id="Group-3" transform="translate(0.000000, 0.057003)">
                    <mask id="mask-3" fill="white">
                        <use xlink:href="#path-2"></use>
                    </mask>
                    <g id="Clip-2"></g>
                    <path d="M54.747108,19.1458929 L2.40472517,19.1458929 C1.07644671,19.1458929 3.76674107e-05,18.0693583 3.76674107e-05,16.7412054 C3.76674107e-05,15.4130525 1.07644671,14.3365179 2.40472517,14.3365179 L54.747108,14.3365179 C57.3553251,14.3365179 59.476377,12.215466 59.476377,9.60724888 C59.476377,6.99890625 57.3553251,4.87797991 54.747108,4.87797991 C52.1395187,4.87797991 50.0185924,6.99890625 50.0185924,9.60724888 C50.0185924,10.9354018 48.9421833,12.0119364 47.6139049,12.0119364 C46.2856264,12.0119364 45.2092174,10.9354018 45.2092174,9.60724888 C45.2092174,4.34737165 49.4879841,0.0686049107 54.747108,0.0686049107 C60.0062319,0.0686049107 64.285752,4.34737165 64.285752,9.60724888 C64.285752,14.8671261 60.0062319,19.1458929 54.747108,19.1458929" id="Fill-1" fill="url(#linearGradient-4)" mask="url(#mask-3)"></path>
                </g>
                <path d="M60.9191895,29.382853 L2.40475028,29.382853 C1.07647182,29.382853 6.27790179e-05,28.3063184 6.27790179e-05,26.9780399 C6.27790179e-05,25.649887 1.07647182,24.5733524 2.40475028,24.5733524 L60.9191895,24.5733524 C62.2473424,24.5733524 63.3237514,25.649887 63.3237514,26.9780399 C63.3237514,28.3063184 62.2473424,29.382853 60.9191895,29.382853" id="Fill-4" fill="url(#linearGradient-5)"></path>
                <g id="Group-8" transform="translate(0.000000, 34.585463)">
                    <mask id="mask-7" fill="white">
                        <use xlink:href="#path-6"></use>
                    </mask>
                    <g id="Clip-7"></g>
                    <path d="M44.5704032,19.0847712 C39.3105259,19.0847712 35.0326381,14.80613 35.0326381,9.54700614 C35.0326381,8.21872768 36.1090472,7.14231864 37.4372001,7.14231864 C38.7656041,7.14231864 39.8420131,8.21872768 39.8420131,9.54700614 C39.8420131,12.1544699 41.9629395,14.2753962 44.5704032,14.2753962 C47.1787458,14.2753962 49.2996722,12.1544699 49.2996722,9.54700614 C49.2996722,6.9386635 47.1787458,4.81773717 44.5704032,4.81773717 L2.40475028,4.81773717 C1.07647182,4.81773717 -6.27790179e-05,3.74120257 -6.27790179e-05,2.41304967 C-6.27790179e-05,1.08489676 1.07647182,0.00823660714 2.40475028,0.00823660714 L44.5704032,0.00823660714 C49.830406,0.00823660714 54.1091727,4.28788225 54.1091727,9.54700614 C54.1091727,14.80613 49.8295271,19.0847712 44.5704032,19.0847712" id="Fill-6" fill="url(#linearGradient-5)" mask="url(#mask-7)"></path>
                </g>
            </g>
        </g>
    </g>
</svg>