<?xml version="1.0" encoding="UTF-8"?>
<svg width="485px" height="282px" viewBox="0 0 485 282" version="1.1" xmlns="http://www.w3.org/2000/svg" xmlns:xlink="http://www.w3.org/1999/xlink">
    <!-- Generator: Sketch 49.2 (51160) - http://www.bohemiancoding.com/sketch -->
    <title>img/wpl</title>
    <desc>Created with Sketch.</desc>
    <defs>
        <linearGradient x1="17.5445335%" y1="47.6928711%" x2="84.4705385%" y2="47.6928711%" id="linearGradient-1">
            <stop stop-color="#05698D" offset="0%"></stop>
            <stop stop-color="#05698D" offset="100%"></stop>
        </linearGradient>
        <rect id="path-2" x="0" y="0" width="408" height="256"></rect>
        <linearGradient x1="83.6388645%" y1="80.972738%" x2="23.1769302%" y2="26.8515829%" id="linearGradient-3">
            <stop stop-color="#16BEC7" offset="0%"></stop>
            <stop stop-color="#29B1EB" offset="100%"></stop>
        </linearGradient>
        <rect id="path-4" x="7" y="6" width="394" height="242"></rect>
        <path d="M84,26 L84,167 L58,167 L58,26 L7,26 L7,0 L84,0 L84,26 Z" id="path-5"></path>
        <linearGradient x1="81.9173486%" y1="79.4317613%" x2="24.0970743%" y2="27.6752294%" id="linearGradient-6">
            <stop stop-color="#29B1EB" offset="0%"></stop>
            <stop stop-color="#16BEC7" offset="100%"></stop>
        </linearGradient>
        <path d="M78,20 L78,167 L64,167 L64,20 L0,20 L0,6 L78,6 L78,20 Z" id="path-7"></path>
        <linearGradient x1="82.2452729%" y1="18.860205%" x2="50%" y2="100%" id="linearGradient-8">
            <stop stop-color="#FFFFFF" stop-opacity="0.7" offset="0%"></stop>
            <stop stop-color="#FFFFFF" offset="100%"></stop>
        </linearGradient>
        <polygon id="path-9" points="3.72262774e-05 0.124087591 16.9405375 0.124087591 16.9405375 17.0660891 3.72262774e-05 17.0660891 3.72262774e-05 0.124087591"></polygon>
        <filter x="-73.5%" y="-63.9%" width="247.1%" height="238.9%" filterUnits="objectBoundingBox" id="filter-11">
            <feOffset dx="0" dy="1" in="SourceAlpha" result="shadowOffsetOuter1"></feOffset>
            <feGaussianBlur stdDeviation="4" in="shadowOffsetOuter1" result="shadowBlurOuter1"></feGaussianBlur>
            <feColorMatrix values="0 0 0 0 1   0 0 0 0 1   0 0 0 0 1  0 0 0 0.5 0" type="matrix" in="shadowBlurOuter1" result="shadowMatrixOuter1"></feColorMatrix>
            <feMerge>
                <feMergeNode in="shadowMatrixOuter1"></feMergeNode>
                <feMergeNode in="SourceGraphic"></feMergeNode>
            </feMerge>
        </filter>
        <polygon id="path-12" points="3.72262774e-05 0.124087591 16.9405375 0.124087591 16.9405375 17.0660891 3.72262774e-05 17.0660891 3.72262774e-05 0.124087591"></polygon>
        <polygon id="path-14" points="3.72262774e-05 0.124087591 16.9405375 0.124087591 16.9405375 17.0660891 3.72262774e-05 17.0660891 3.72262774e-05 0.124087591"></polygon>
        <polygon id="path-16" points="3.72262774e-05 0.124087591 16.9405375 0.124087591 16.9405375 17.0660891 3.72262774e-05 17.0660891 3.72262774e-05 0.124087591"></polygon>
        <polygon id="path-18" points="3.72262774e-05 0.124087591 16.9405375 0.124087591 16.9405375 17.0660891 3.72262774e-05 17.0660891 3.72262774e-05 0.124087591"></polygon>
        <polygon id="path-20" points="0 10.9999633 0 0.0489133333 10.9511233 0.0489133333 10.9511233 10.9999633"></polygon>
        <polygon id="path-22" points="0 11.99996 0 0.05336 11.94668 0.05336 11.94668 11.99996"></polygon>
        <filter x="-125.0%" y="-104.5%" width="350.0%" height="327.3%" filterUnits="objectBoundingBox" id="filter-24">
            <feOffset dx="0" dy="1" in="SourceAlpha" result="shadowOffsetOuter1"></feOffset>
            <feGaussianBlur stdDeviation="4" in="shadowOffsetOuter1" result="shadowBlurOuter1"></feGaussianBlur>
            <feColorMatrix values="0 0 0 0 1   0 0 0 0 1   0 0 0 0 1  0 0 0 0.5 0" type="matrix" in="shadowBlurOuter1" result="shadowMatrixOuter1"></feColorMatrix>
            <feMerge>
                <feMergeNode in="shadowMatrixOuter1"></feMergeNode>
                <feMergeNode in="SourceGraphic"></feMergeNode>
            </feMerge>
        </filter>
        <polygon id="path-25" points="0 9.99996667 0 0.0444666667 9.95556667 0.0444666667 9.95556667 9.99996667"></polygon>
        <polygon id="path-27" points="0 11.99996 0 0.05336 11.94668 0.05336 11.94668 11.99996"></polygon>
    </defs>
    <g id="img/wpl" stroke="none" stroke-width="1" fill="none" fill-rule="evenodd">
        <g id="pool">
            <g id="Rectangle-5">
                <use fill="#FFFFFF" xlink:href="#path-2"></use>
                <use fill="url(#linearGradient-1)" xlink:href="#path-2"></use>
            </g>
            <g id="Rectangle-5">
                <use fill="url(#linearGradient-3)" xlink:href="#path-4"></use>
                <use fill-opacity="0.24" fill="#333333" xlink:href="#path-4"></use>
            </g>
            <g id="waterpipe" transform="translate(401.000000, 115.000000)">
                <g id="Group">
                    <g id="Combined-Shape">
                        <use fill="#FFFFFF" xlink:href="#path-5"></use>
                        <use fill="url(#linearGradient-1)" xlink:href="#path-5"></use>
                    </g>
                    <g id="Combined-Shape">
                        <use fill="#FFFFFF" xlink:href="#path-7"></use>
                        <use fill="url(#linearGradient-6)" xlink:href="#path-7"></use>
                        <use fill-opacity="0.24" fill="#333333" xlink:href="#path-7"></use>
                    </g>
                </g>
            </g>
            <g id="bubble" transform="translate(60.000000, 23.000000)">
                <g id="icon/bubble" transform="translate(60.000000, 50.000000)" fill="url(#linearGradient-8)">
                    <path d="M12.9921649,0.279628829 C20.1675793,0.279628829 25.9844351,6.09648468 25.9844351,13.271782 C25.9844351,20.4471964 20.1675793,26.2639351 12.9921649,26.2639351 C5.81675045,26.2639351 1.17117117e-05,20.4471964 1.17117117e-05,13.271782 C1.17117117e-05,6.09648468 5.81675045,0.279628829 12.9921649,0.279628829 Z" id="Fill-1" fill-opacity="0.6"></path>
                    <path d="M12.9921649,4.27724595 C8.02464234,4.27724595 3.99757027,8.30431802 3.99757027,13.2718405 C3.99757027,13.8238135 4.44507477,14.2712009 4.99693063,14.2712009 C5.5489036,14.2712009 5.99640811,13.8238135 5.99640811,13.2718405 C5.99640811,9.40814685 9.12858829,6.27608378 12.9921649,6.27608378 C13.5441378,6.27608378 13.9915252,5.82857928 13.9915252,5.27660631 C13.9915252,4.72463333 13.5441378,4.27724595 12.9921649,4.27724595" id="Fill-4"></path>
                </g>
                <g id="icon/bubble-copy-3" transform="translate(54.000000, 159.000000)" fill="url(#linearGradient-8)">
                    <path d="M12.9921649,0.279628829 C20.1675793,0.279628829 25.9844351,6.09648468 25.9844351,13.271782 C25.9844351,20.4471964 20.1675793,26.2639351 12.9921649,26.2639351 C5.81675045,26.2639351 1.17117117e-05,20.4471964 1.17117117e-05,13.271782 C1.17117117e-05,6.09648468 5.81675045,0.279628829 12.9921649,0.279628829 Z" id="Fill-1" fill-opacity="0.6"></path>
                    <path d="M12.9921649,4.27724595 C8.02464234,4.27724595 3.99757027,8.30431802 3.99757027,13.2718405 C3.99757027,13.8238135 4.44507477,14.2712009 4.99693063,14.2712009 C5.5489036,14.2712009 5.99640811,13.8238135 5.99640811,13.2718405 C5.99640811,9.40814685 9.12858829,6.27608378 12.9921649,6.27608378 C13.5441378,6.27608378 13.9915252,5.82857928 13.9915252,5.27660631 C13.9915252,4.72463333 13.5441378,4.27724595 12.9921649,4.27724595" id="Fill-4"></path>
                </g>
                <g id="icon/bubble-copy-2" transform="translate(134.000000, 12.000000)" fill="url(#linearGradient-8)">
                    <path d="M14.9909595,0.322648649 C23.2702838,0.322648649 29.9820405,7.03440541 29.9820405,15.3135946 C29.9820405,23.5929189 23.2702838,30.3045405 14.9909595,30.3045405 C6.71163514,30.3045405 1.35135135e-05,23.5929189 1.35135135e-05,15.3135946 C1.35135135e-05,7.03440541 6.71163514,0.322648649 14.9909595,0.322648649 Z" id="Fill-1" fill-opacity="0.35"></path>
                    <path d="M14.9909595,4.93528378 C9.2592027,4.93528378 4.61258108,9.58190541 4.61258108,15.3136622 C4.61258108,15.9505541 5.12893243,16.4667703 5.76568919,16.4667703 C6.40258108,16.4667703 6.91893243,15.9505541 6.91893243,15.3136622 C6.91893243,10.8555541 10.5329865,7.24163514 14.9909595,7.24163514 C15.6278514,7.24163514 16.1440676,6.72528378 16.1440676,6.08839189 C16.1440676,5.4515 15.6278514,4.93528378 14.9909595,4.93528378" id="Fill-4"></path>
                </g>
                <g id="icon/bubble-copy" transform="translate(226.000000, 170.000000)" fill="url(#linearGradient-8)">
                    <path d="M14.9909595,0.322648649 C23.2702838,0.322648649 29.9820405,7.03440541 29.9820405,15.3135946 C29.9820405,23.5929189 23.2702838,30.3045405 14.9909595,30.3045405 C6.71163514,30.3045405 1.35135133e-05,23.5929189 1.35135133e-05,15.3135946 C1.35135133e-05,7.03440541 6.71163514,0.322648649 14.9909595,0.322648649 Z" id="Fill-1" fill-opacity="0.3"></path>
                    <path d="M15.9909595,4.93528378 C10.2592027,4.93528378 5.61258108,9.58190541 5.61258108,15.3136622 C5.61258108,15.9505541 6.12893243,16.4667703 6.76568919,16.4667703 C7.40258108,16.4667703 7.91893243,15.9505541 7.91893243,15.3136622 C7.91893243,10.8555541 11.5329865,7.24163514 15.9909595,7.24163514 C16.6278514,7.24163514 17.1440676,6.72528378 17.1440676,6.08839189 C17.1440676,5.4515 16.6278514,4.93528378 15.9909595,4.93528378" id="Fill-4"></path>
                </g>
                <g id="Page-1" transform="translate(0.000000, 178.000000)">
                    <mask id="mask-10" fill="white">
                        <use xlink:href="#path-9"></use>
                    </mask>
                    <g id="Clip-2"></g>
                    <path d="M8.47100073,17.0660891 C3.79265036,17.0660891 3.72262774e-05,13.2734759 3.72262774e-05,8.59512555 C3.72262774e-05,3.91665109 3.79265036,0.124037956 8.47100073,0.124037956 C13.1494752,0.124037956 16.9420883,3.91665109 16.9420883,8.59512555 C16.9420883,13.2734759 13.1494752,17.0660891 8.47100073,17.0660891 Z" id="Fill-1" fill-opacity="0.5" fill="url(#linearGradient-8)" mask="url(#mask-10)"></path>
                    <path d="M5.29440803,9.65395255 C5.87923285,9.65395255 6.35324745,9.17993796 6.35324745,8.59511314 C6.35324745,7.4254635 7.30152482,6.47731022 8.47105036,6.47731022 C9.05575109,6.47731022 9.53001387,6.00329562 9.53001387,5.4184708 C9.53001387,4.83364599 9.05575109,4.3595073 8.47105036,4.3595073 C6.13187518,4.3595073 4.23556861,6.25593796 4.23556861,8.59511314 C4.23556861,9.17993796 4.70958321,9.65395255 5.29440803,9.65395255" id="Fill-4" fill="url(#linearGradient-8)" mask="url(#mask-10)"></path>
                </g>
                <g id="Page-1-Copy-7" filter="url(#filter-11)" transform="translate(272.000000, 50.000000)">
                    <mask id="mask-13" fill="white">
                        <use xlink:href="#path-12"></use>
                    </mask>
                    <g id="Clip-2"></g>
                    <path d="M8.47100073,17.0660891 C3.79265036,17.0660891 3.72262774e-05,13.2734759 3.72262774e-05,8.59512555 C3.72262774e-05,3.91665109 3.79265036,0.124037956 8.47100073,0.124037956 C13.1494752,0.124037956 16.9420883,3.91665109 16.9420883,8.59512555 C16.9420883,13.2734759 13.1494752,17.0660891 8.47100073,17.0660891 Z" id="Fill-1" fill-opacity="0.5" fill="url(#linearGradient-8)" mask="url(#mask-13)"></path>
                    <path d="M5.29440803,9.65395255 C5.87923285,9.65395255 6.35324745,9.17993796 6.35324745,8.59511314 C6.35324745,7.4254635 7.30152482,6.47731022 8.47105036,6.47731022 C9.05575109,6.47731022 9.53001387,6.00329562 9.53001387,5.4184708 C9.53001387,4.83364599 9.05575109,4.3595073 8.47105036,4.3595073 C6.13187518,4.3595073 4.23556861,6.25593796 4.23556861,8.59511314 C4.23556861,9.17993796 4.70958321,9.65395255 5.29440803,9.65395255" id="Fill-4" fill="url(#linearGradient-8)" mask="url(#mask-13)"></path>
                </g>
                <g id="Page-1-Copy-8" transform="translate(132.000000, 159.000000)">
                    <mask id="mask-15" fill="white">
                        <use xlink:href="#path-14"></use>
                    </mask>
                    <g id="Clip-2"></g>
                    <path d="M8.47100073,17.0660891 C3.79265036,17.0660891 3.72262774e-05,13.2734759 3.72262774e-05,8.59512555 C3.72262774e-05,3.91665109 3.79265036,0.124037956 8.47100073,0.124037956 C13.1494752,0.124037956 16.9420883,3.91665109 16.9420883,8.59512555 C16.9420883,13.2734759 13.1494752,17.0660891 8.47100073,17.0660891 Z" id="Fill-1" fill-opacity="0.6" fill="url(#linearGradient-8)" mask="url(#mask-15)"></path>
                    <path d="M5.29440803,9.65395255 C5.87923285,9.65395255 6.35324745,9.17993796 6.35324745,8.59511314 C6.35324745,7.4254635 7.30152482,6.47731022 8.47105036,6.47731022 C9.05575109,6.47731022 9.53001387,6.00329562 9.53001387,5.4184708 C9.53001387,4.83364599 9.05575109,4.3595073 8.47105036,4.3595073 C6.13187518,4.3595073 4.23556861,6.25593796 4.23556861,8.59511314 C4.23556861,9.17993796 4.70958321,9.65395255 5.29440803,9.65395255" id="Fill-4" fill="url(#linearGradient-8)" mask="url(#mask-15)"></path>
                </g>
                <g id="Page-1-Copy-9" transform="translate(280.000000, 156.000000)">
                    <mask id="mask-17" fill="white">
                        <use xlink:href="#path-16"></use>
                    </mask>
                    <g id="Clip-2"></g>
                    <path d="M8.47100073,17.0660891 C3.79265036,17.0660891 3.72262774e-05,13.2734759 3.72262774e-05,8.59512555 C3.72262774e-05,3.91665109 3.79265036,0.124037956 8.47100073,0.124037956 C13.1494752,0.124037956 16.9420883,3.91665109 16.9420883,8.59512555 C16.9420883,13.2734759 13.1494752,17.0660891 8.47100073,17.0660891 Z" id="Fill-1" fill-opacity="0.6" fill="url(#linearGradient-8)" mask="url(#mask-17)"></path>
                    <path d="M5.29440803,9.65395255 C5.87923285,9.65395255 6.35324745,9.17993796 6.35324745,8.59511314 C6.35324745,7.4254635 7.30152482,6.47731022 8.47105036,6.47731022 C9.05575109,6.47731022 9.53001387,6.00329562 9.53001387,5.4184708 C9.53001387,4.83364599 9.05575109,4.3595073 8.47105036,4.3595073 C6.13187518,4.3595073 4.23556861,6.25593796 4.23556861,8.59511314 C4.23556861,9.17993796 4.70958321,9.65395255 5.29440803,9.65395255" id="Fill-4" fill="url(#linearGradient-8)" mask="url(#mask-17)"></path>
                </g>
                <g id="Page-1-Copy-4" transform="translate(8.000000, 25.000000)">
                    <mask id="mask-19" fill="white">
                        <use xlink:href="#path-18"></use>
                    </mask>
                    <g id="Clip-2"></g>
                    <path d="M8.47100073,17.0660891 C3.79265036,17.0660891 3.72262774e-05,13.2734759 3.72262774e-05,8.59512555 C3.72262774e-05,3.91665109 3.79265036,0.124037956 8.47100073,0.124037956 C13.1494752,0.124037956 16.9420883,3.91665109 16.9420883,8.59512555 C16.9420883,13.2734759 13.1494752,17.0660891 8.47100073,17.0660891 Z" id="Fill-1" fill-opacity="0.5" fill="url(#linearGradient-8)" mask="url(#mask-19)"></path>
                    <path d="M5.29440803,9.65395255 C5.87923285,9.65395255 6.35324745,9.17993796 6.35324745,8.59511314 C6.35324745,7.4254635 7.30152482,6.47731022 8.47105036,6.47731022 C9.05575109,6.47731022 9.53001387,6.00329562 9.53001387,5.4184708 C9.53001387,4.83364599 9.05575109,4.3595073 8.47105036,4.3595073 C6.13187518,4.3595073 4.23556861,6.25593796 4.23556861,8.59511314 C4.23556861,9.17993796 4.70958321,9.65395255 5.29440803,9.65395255" id="Fill-4" fill="url(#linearGradient-8)" mask="url(#mask-19)"></path>
                </g>
                <g id="Page-1" transform="translate(256.000000, 143.000000)">
                    <g id="Group-3" transform="translate(0.000000, 0.042808)">
                        <mask id="mask-21" fill="white">
                            <use xlink:href="#path-20"></use>
                        </mask>
                        <g id="Clip-2"></g>
                        <path d="M10.9511233,5.52443833 C10.9511233,8.54852167 8.49959,10.9999633 5.47559833,10.9999633 C2.451515,10.9999633 -1.83333333e-05,8.54852167 -1.83333333e-05,5.52443833 C-1.83333333e-05,2.500355 2.451515,0.0489133333 5.47559833,0.0489133333 C8.49959,0.0489133333 10.9511233,2.500355 10.9511233,5.52443833 Z" id="Fill-1" fill-opacity="0.6" fill="url(#linearGradient-8)" mask="url(#mask-21)"></path>
                    </g>
                    <path d="M6.2577625,4.00279 C6.2577625,3.57085667 5.90759583,3.22059833 5.47557083,3.22059833 C4.17949583,3.22059833 3.12890417,4.27119 3.12890417,5.567265 C3.12890417,5.99929 3.4791625,6.34945667 3.91109583,6.34945667 C4.34312083,6.34945667 4.69337917,5.99929 4.69337917,5.567265 C4.69337917,5.13524 5.04354583,4.78507333 5.47557083,4.78507333 C5.90759583,4.78507333 6.2577625,4.434815 6.2577625,4.00279" id="Fill-4" fill="url(#linearGradient-8)"></path>
                </g>
                <g id="Page-1-Copy-5" transform="translate(54.000000, 0.000000)">
                    <g id="Group-3" transform="translate(0.000000, 0.046700)">
                        <mask id="mask-23" fill="white">
                            <use xlink:href="#path-22"></use>
                        </mask>
                        <g id="Clip-2"></g>
                        <path d="M11.94668,6.02666 C11.94668,9.32566 9.27228,11.99996 5.97338,11.99996 C2.67438,11.99996 -2e-05,9.32566 -2e-05,6.02666 C-2e-05,2.72766 2.67438,0.05336 5.97338,0.05336 C9.27228,0.05336 11.94668,2.72766 11.94668,6.02666 Z" id="Fill-1" fill-opacity="0.35" fill="url(#linearGradient-8)" mask="url(#mask-23)"></path>
                    </g>
                    <path d="M6.82665,4.36668 C6.82665,3.89548 6.44465,3.51338 5.97335,3.51338 C4.55945,3.51338 3.41335,4.65948 3.41335,6.07338 C3.41335,6.54468 3.79545,6.92668 4.26665,6.92668 C4.73795,6.92668 5.12005,6.54468 5.12005,6.07338 C5.12005,5.60208 5.50205,5.22008 5.97335,5.22008 C6.44465,5.22008 6.82665,4.83798 6.82665,4.36668" id="Fill-4" fill="url(#linearGradient-8)"></path>
                </g>
                <g id="Page-1-Copy-3" filter="url(#filter-24)" transform="translate(252.000000, 39.000000)">
                    <g id="Group-3" transform="translate(0.000000, 0.038917)">
                        <mask id="mask-26" fill="white">
                            <use xlink:href="#path-25"></use>
                        </mask>
                        <g id="Clip-2"></g>
                        <path d="M9.95556667,5.02221667 C9.95556667,7.77138333 7.7269,9.99996667 4.97781667,9.99996667 C2.22865,9.99996667 -1.66666667e-05,7.77138333 -1.66666667e-05,5.02221667 C-1.66666667e-05,2.27305 2.22865,0.0444666667 4.97781667,0.0444666667 C7.7269,0.0444666667 9.95556667,2.27305 9.95556667,5.02221667 Z" id="Fill-1" fill-opacity="0.4" fill="url(#linearGradient-8)" mask="url(#mask-26)"></path>
                    </g>
                    <path d="M5.688875,3.6389 C5.688875,3.24623333 5.37054167,2.92781667 4.97779167,2.92781667 C3.79954167,2.92781667 2.84445833,3.8829 2.84445833,5.06115 C2.84445833,5.4539 3.162875,5.77223333 3.55554167,5.77223333 C3.94829167,5.77223333 4.26670833,5.4539 4.26670833,5.06115 C4.26670833,4.6684 4.58504167,4.35006667 4.97779167,4.35006667 C5.37054167,4.35006667 5.688875,4.03165 5.688875,3.6389" id="Fill-4" fill="url(#linearGradient-8)"></path>
                </g>
                <g id="Page-1-Copy-10" transform="translate(152.000000, 187.000000)">
                    <g id="Group-3" transform="translate(0.000000, 0.046700)">
                        <mask id="mask-28" fill="white">
                            <use xlink:href="#path-27"></use>
                        </mask>
                        <g id="Clip-2"></g>
                        <path d="M11.94668,6.02666 C11.94668,9.32566 9.27228,11.99996 5.97338,11.99996 C2.67438,11.99996 -2e-05,9.32566 -2e-05,6.02666 C-2e-05,2.72766 2.67438,0.05336 5.97338,0.05336 C9.27228,0.05336 11.94668,2.72766 11.94668,6.02666 Z" id="Fill-1" fill-opacity="0.6" fill="url(#linearGradient-8)" mask="url(#mask-28)"></path>
                    </g>
                    <path d="M6.82665,4.36668 C6.82665,3.89548 6.44465,3.51338 5.97335,3.51338 C4.55945,3.51338 3.41335,4.65948 3.41335,6.07338 C3.41335,6.54468 3.79545,6.92668 4.26665,6.92668 C4.73795,6.92668 5.12005,6.54468 5.12005,6.07338 C5.12005,5.60208 5.50205,5.22008 5.97335,5.22008 C6.44465,5.22008 6.82665,4.83798 6.82665,4.36668" id="Fill-4" fill="url(#linearGradient-8)"></path>
                </g>
            </g>
        </g>
    </g>
</svg>