<?xml version="1.0" encoding="UTF-8"?>
<svg width="32px" height="32px" viewBox="0 0 32 32" version="1.1" xmlns="http://www.w3.org/2000/svg" xmlns:xlink="http://www.w3.org/1999/xlink">
    <!-- Generator: Sketch 49.2 (51160) - http://www.bohemiancoding.com/sketch -->
    <title>icon/template/wp/n</title>
    <desc>Created with Sketch.</desc>
    <defs>
        <filter x="-39.3%" y="-39.3%" width="178.6%" height="178.6%" filterUnits="objectBoundingBox" id="filter-1">
            <feGaussianBlur stdDeviation="2.88225446 0" in="SourceGraphic"></feGaussianBlur>
        </filter>
    </defs>
    <g id="icon/template/wp/n" stroke="none" stroke-width="1" fill="none" fill-rule="evenodd">
        <g id="icon/template/wp"></g>
        <path d="M14.5182381,19.7986995 C12.4239627,18.9829369 11.3847579,16.6136557 12.2031648,14.5193803 C13.0189273,12.426427 15.3868864,11.3872222 17.4811618,12.2029848 C19.5754372,13.0200695 20.6133199,15.3880286 19.7975574,17.482304 C18.9804726,19.5765794 16.6111914,20.6157842 14.5182381,19.7986995 M26.1147593,17.500814 L25.1019973,17.1054931 C24.8269915,16.9983995 24.6048714,16.625555 24.6154485,16.2910527 C24.6247035,15.9803489 24.6167706,15.6656787 24.5929721,15.354975 C24.5665292,15.023117 24.7714614,14.6423396 25.0411787,14.5246689 L26.0433635,14.084395 C26.7467439,13.7763356 27.0667027,12.9539623 26.7586432,12.2505819 L26.0446857,10.6243454 C25.8952835,10.2845545 25.6215998,10.0214479 25.2765203,9.88791139 C24.9301187,9.7517306 24.5519856,9.75966346 24.2121947,9.90906568 L23.2100099,10.3493395 C23.0487084,10.4194131 22.8292326,10.4128024 22.621656,10.3334738 C22.4920859,10.2819102 22.3797037,10.2078701 22.2950866,10.1179644 C22.0822214,9.88791139 21.8548127,9.66843556 21.6207933,9.46614759 C21.3669418,9.24667176 21.2439824,8.8288744 21.3497539,8.55519068 L21.746397,7.54110657 C22.0240471,6.82714904 21.6710348,6.02064147 20.9557551,5.74034704 L19.3004314,5.09514098 C18.5864739,4.81616869 17.777322,5.17182531 17.4983497,5.88578283 L17.1043509,6.8985448 C16.9972573,7.17222851 16.6244128,7.39567078 16.2899105,7.38509363 C15.9792068,7.37583862 15.6645366,7.38377148 15.3525107,7.40757007 C15.2321957,7.41814722 15.0946927,7.39567078 14.9664448,7.34542932 C14.7588683,7.26477856 14.5922782,7.11934277 14.5222046,6.95804126 L14.0832529,5.95717858 C13.9338507,5.61738769 13.6614891,5.35560326 13.3150875,5.22074462 C12.9686859,5.08588597 12.5905528,5.09381884 12.2507619,5.24189891 L10.6218811,5.95717858 C10.280768,6.1065808 10.0203057,6.37894238 9.88412495,6.72402185 C9.7492663,7.07042346 9.75719917,7.44855652 9.90660139,7.78834741 L10.3468752,8.79185438 C10.464546,9.06157166 10.3587745,9.47936903 10.1141779,9.70677772 C9.88676923,9.91832069 9.6672934,10.1457294 9.46368329,10.3810709 C9.24552961,10.6322782 8.82905439,10.7565597 8.55537067,10.6494661 L7.54128656,10.2541452 C6.82732903,9.97517286 6.01949932,10.3308295 5.74052703,11.044787 L5.09532097,12.7014329 C4.81634868,13.4153904 5.17068315,14.2232201 5.88464068,14.5021924 L6.89740264,14.8975133 C7.17108636,15.004607 7.39452862,15.3761293 7.38395147,15.7106316 C7.37469647,16.0213354 7.38395147,16.3360055 7.40775006,16.6467093 C7.43419293,16.9785673 7.22661639,17.3593447 6.95822125,17.4783376 L5.95471428,17.9172892 C5.2539782,18.2266708 4.93269731,19.0490441 5.23943462,19.7497802 L5.95471428,21.3799832 C6.10411651,21.7197741 6.37647808,21.9815585 6.72287969,22.1177393 C7.06928131,22.2512758 7.44741436,22.2446651 7.78720526,22.0939407 L8.78939008,21.6549891 C8.95201374,21.5849155 9.17281171,21.5888819 9.37906611,21.6708548 C9.50863618,21.7210963 9.62101838,21.7964584 9.70431342,21.8863642 C9.91850068,22.115095 10.1445872,22.3345709 10.3799288,22.5368588 C10.6324582,22.7550125 10.7554176,23.1728099 10.6483239,23.4464936 L10.253003,24.4592556 C9.97403071,25.1732131 10.3296873,25.982365 11.0436448,26.2613372 L12.6989686,26.9065433 C13.4142483,27.1855156 14.222078,26.8311811 14.5010503,26.1159015 L14.8963712,25.1044616 C15.0034648,24.8294558 15.3749872,24.6060135 15.7094895,24.6179128 C16.0201932,24.6258457 16.3361855,24.6192349 16.6468893,24.5941142 C16.7685265,24.5848592 16.9047073,24.6073357 17.031633,24.6575771 C17.2405317,24.7382279 17.4071218,24.8836637 17.4771954,25.0449652 L17.9174692,26.04715 C18.0668714,26.3856187 18.339233,26.6487253 18.6856346,26.783584 C19.0320362,26.9184426 19.4088472,26.9105097 19.7499602,26.7624297 L21.3775189,26.04715 C22.0795772,25.7377684 22.3995359,24.9153951 22.0927986,24.2133369 L21.6525248,23.2111521 C21.534854,22.9414348 21.6406255,22.5223153 21.885222,22.2962287 C22.1139529,22.0846857 22.3334287,21.857277 22.5357167,21.6219355 C22.7538704,21.3680839 23.1703456,21.2464467 23.4453515,21.3535403 L24.4581134,21.7488613 C25.1733931,22.0265114 25.9812228,21.6721769 26.2588729,20.9582194 L26.9054012,19.3015735 C27.1830513,18.5862939 26.8287168,17.7784642 26.1147593,17.500814" id="Fill-1" fill="#AAA097" filter="url(#filter-1)"></path>
    </g>
</svg>