<?xml version="1.0" encoding="UTF-8"?>
<svg width="16px" height="16px" viewBox="0 0 16 16" version="1.1" xmlns="http://www.w3.org/2000/svg" xmlns:xlink="http://www.w3.org/1999/xlink">
    <!-- Generator: Sketch 49.2 (51160) - http://www.bohemiancoding.com/sketch -->
    <title>icon/device/nwf/on</title>
    <desc>Created with Sketch.</desc>
    <defs>
        <polygon id="path-1" points="0.000177777778 0.183111111 14.5207111 0.183111111 14.5207111 14.7036089 0.000177777778 14.7036089"></polygon>
        <polygon id="path-3" points="0 14.7037511 0 0.183217778 14.5204622 0.183217778 14.5204622 14.7037511"></polygon>
        <linearGradient x1="25.7522624%" y1="0%" x2="86.201867%" y2="89.708529%" id="linearGradient-5">
            <stop stop-color="#249624" offset="0%"></stop>
            <stop stop-color="#48BC3A" offset="100%"></stop>
        </linearGradient>
    </defs>
    <g id="icon/device/nwf/on" stroke="none" stroke-width="1" fill="none" fill-rule="evenodd">
        <g id="Page-1" transform="translate(0.000000, -0.300000)">
            <g id="Group-3" transform="translate(1.066667, 1.594773)" fill="#282828">
                <path d="M14.5811555,0.105226655 L0.606044421,0.105226655 C0.455288865,0.105226655 0.333333309,0.22718221 0.333333309,0.377937766 L0.333333309,14.3530489 C0.333333309,14.5038044 0.455288865,14.62576 0.606044421,14.62576 L14.5811555,14.62576 C14.7315555,14.62576 14.8538666,14.5038044 14.8538666,14.3530489 L14.8538666,0.377937766 C14.8542222,0.22718221 14.7315555,0.105226655 14.5811555,0.105226655" id="Fill-1"></path>
            </g>
            <g id="Group-6" transform="translate(0.000000, 0.172551)">
                <mask id="mask-2" fill="white">
                    <use xlink:href="#path-1"></use>
                </mask>
                <g id="Clip-5"></g>
                <path d="M14.248,0.183075556 L0.272533333,0.183075556 C0.122133333,0.183075556 0.000177777778,0.305031111 0.000177777778,0.455786667 L0.000177777778,14.4308978 C0.000177777778,14.5816533 0.122133333,14.7036089 0.272533333,14.7036089 L14.248,14.7036089 C14.3984,14.7036089 14.5207111,14.5816533 14.5207111,14.4308978 L14.5207111,0.455786667 C14.5207111,0.305031111 14.3984,0.183075556 14.248,0.183075556" id="Fill-4" fill="#FFFFFF" mask="url(#mask-2)"></path>
            </g>
            <g id="Group-9" transform="translate(0.000000, 0.172551)">
                <mask id="mask-4" fill="white">
                    <use xlink:href="#path-3"></use>
                </mask>
                <g id="Clip-8"></g>
                <path d="M13.4061511,14.0356622 C13.1597511,14.0356622 12.9599289,13.83584 12.9599289,13.58944 C12.9599289,13.3423289 13.1597511,13.1428622 13.4061511,13.1428622 C13.6525511,13.1428622 13.8527289,13.3426844 13.8527289,13.58944 C13.8527289,13.83584 13.6525511,14.0356622 13.4061511,14.0356622 M7.26037333,13.2769067 C4.03868444,13.2769067 1.42677333,10.6649956 1.42677333,7.44330667 C1.42677333,4.22126222 4.03868444,1.60970667 7.26037333,1.60970667 C10.4817067,1.60970667 13.0939733,4.22126222 13.0939733,7.44330667 C13.0939733,10.6649956 10.4817067,13.2769067 7.26037333,13.2769067 M0.668017778,1.29717333 C0.668017778,1.05077333 0.86784,0.850951111 1.11424,0.850951111 C1.36135111,0.850951111 1.56081778,1.05077333 1.56081778,1.29717333 C1.56081778,1.54392889 1.36135111,1.74375111 1.11424,1.74375111 C0.86784,1.74375111 0.668017778,1.54392889 0.668017778,1.29717333 M14.2477511,0.183217778 L0.27264,0.183217778 C0.12224,0.183217778 -7.11111111e-05,0.305173333 -7.11111111e-05,0.455573333 L-7.11111111e-05,14.43104 C-7.11111111e-05,14.58144 0.12224,14.7037511 0.27264,14.7037511 L14.2477511,14.7037511 C14.3985067,14.7037511 14.5204622,14.58144 14.5204622,14.43104 L14.5204622,0.455573333 C14.5204622,0.305173333 14.3985067,0.183217778 14.2477511,0.183217778" id="Fill-7" fill="url(#linearGradient-5)" mask="url(#mask-4)"></path>
            </g>
            <path d="M7.72785778,7.42417778 C8.10830222,7.07182222 9.69336889,5.49777778 9.58208,4.06311111 C9.48643556,2.8336 8.06634667,2.46382222 7.27843556,2.46382222 C6.49088,2.46382222 5.07363556,2.8336 4.97834667,4.06311111 C4.86954667,5.46186667 6.38208,6.99715556 6.80412444,7.3936 C6.92074667,7.28302222 7.07754667,7.2144 7.25105778,7.2144 C7.43985778,7.2144 7.60945778,7.29546667 7.72785778,7.42417778" id="Fill-12" fill="url(#linearGradient-5)"></path>
            <path d="M6.80565333,8.33514667 C6.68049778,8.21674667 6.60192,8.04963556 6.60192,7.86368 C6.60192,7.73959111 6.63747556,7.62403556 6.69792,7.52519111 C6.69863111,7.52341333 6.69934222,7.52163556 6.70005333,7.52021333 C6.18129778,7.36163556 4.07783111,6.80305778 2.90520889,7.60768 C1.88832,8.30492444 2.27836444,9.71968 2.67196444,10.4016356 C3.06592,11.0839467 4.09454222,12.12608 5.20707556,11.5945244 C6.37614222,11.0352356 6.96458667,9.19594667 7.14414222,8.50332444 C7.04280889,8.48625778 6.94965333,8.44643556 6.87000889,8.38848 C6.84440889,8.37283556 6.82307556,8.35541333 6.80565333,8.33514667" id="Fill-14" fill="url(#linearGradient-5)"></path>
            <path d="M7.81539556,7.54350222 C7.86908444,7.63808 7.90037333,7.74723556 7.90037333,7.86350222 C7.90037333,8.18599111 7.66535111,8.45230222 7.35779556,8.50350222 C7.53166222,9.18083556 8.13041778,11.0521244 9.31299556,11.6174578 C10.4251733,12.1493689 11.4559289,11.1047467 11.8495289,10.4224356 C12.2434844,9.74048 12.6317511,8.32785778 11.6148622,7.63061333 C10.4689067,6.84483556 8.39104,7.37141333 7.81539556,7.54350222 Z" id="Fill-16" fill="url(#linearGradient-5)"></path>
        </g>
    </g>
</svg>