<?xml version="1.0" encoding="UTF-8"?>
<svg width="22px" height="22px" viewBox="0 0 22 22" version="1.1" xmlns="http://www.w3.org/2000/svg" xmlns:xlink="http://www.w3.org/1999/xlink">
    <!-- Generator: Sketch 49.2 (51160) - http://www.bohemiancoding.com/sketch -->
    <title>btn/tff_fan/on</title>
    <desc>Created with Sketch.</desc>
    <defs>
        <polygon id="path-1" points="14.1428571 0.0150930804 14.1428571 4.21209643 8.28683036e-06 4.21209643 8.28683036e-06 0.0150930804"></polygon>
        <polygon id="path-3" points="0 4.19864967 0 0.00181205357 11.904018 0.00181205357 11.904018 4.19864967"></polygon>
    </defs>
    <g id="btn/tff_fan/on" stroke="none" stroke-width="1" fill="none" fill-rule="evenodd">
        <g id="btn_tff_fan_off">
            <rect id="box" fill="#333333" x="0" y="0" width="22" height="22" rx="11"></rect>
            <g id="icon_tff_fan" transform="translate(3.928571, 5.500000)">
                <g id="Group-3" transform="translate(0.000000, 0.012541)">
                    <mask id="mask-2" fill="white">
                        <use xlink:href="#path-1"></use>
                    </mask>
                    <g id="Clip-2"></g>
                    <path d="M12.0443638,4.21209643 L0.529039537,4.21209643 C0.236818276,4.21209643 8.28683036e-06,3.97525882 8.28683036e-06,3.68306518 C8.28683036e-06,3.39087154 0.236818276,3.15403393 0.529039537,3.15403393 L12.0443638,3.15403393 C12.6181715,3.15403393 13.0848029,2.68740251 13.0848029,2.11359475 C13.0848029,1.53975937 12.6181715,1.07315558 12.0443638,1.07315558 C11.4706941,1.07315558 11.0040903,1.53975937 11.0040903,2.11359475 C11.0040903,2.40578839 10.7672803,2.642626 10.4750591,2.642626 C10.1828378,2.642626 9.94602782,2.40578839 9.94602782,2.11359475 C9.94602782,0.956421763 10.8873565,0.0150930804 12.0443638,0.0150930804 C13.201371,0.0150930804 14.1428654,0.956421763 14.1428654,2.11359475 C14.1428654,3.27076775 13.201371,4.21209643 12.0443638,4.21209643" id="Fill-1" fill="#E6C043" mask="url(#mask-2)"></path>
                </g>
                <path d="M13.4022217,6.46422765 L0.529045061,6.46422765 C0.2368238,6.46422765 1.38113839e-05,6.22739004 1.38113839e-05,5.93516878 C1.38113839e-05,5.64297514 0.2368238,5.40613753 0.529045061,5.40613753 L13.4022217,5.40613753 C13.6944153,5.40613753 13.9312253,5.64297514 13.9312253,5.93516878 C13.9312253,6.22739004 13.6944153,6.46422765 13.4022217,6.46422765" id="Fill-4" fill="#E6C043"></path>
                <g id="Group-8" transform="translate(0.000000, 7.608802)">
                    <mask id="mask-4" fill="white">
                        <use xlink:href="#path-3"></use>
                    </mask>
                    <g id="Clip-7"></g>
                    <path d="M9.8054887,4.19864967 C8.64831571,4.19864967 7.70718039,3.2573486 7.70718039,2.10034135 C7.70718039,1.80812009 7.94399037,1.5713101 8.23618401,1.5713101 C8.5284329,1.5713101 8.76524289,1.80812009 8.76524289,2.10034135 C8.76524289,2.67398337 9.23184668,3.14058717 9.8054887,3.14058717 C10.3793241,3.14058717 10.8459279,2.67398337 10.8459279,2.10034135 C10.8459279,1.52650597 10.3793241,1.05990218 9.8054887,1.05990218 L0.529045061,1.05990218 C0.2368238,1.05990218 -1.38113839e-05,0.823064565 -1.38113839e-05,0.530870926 C-1.38113839e-05,0.238677288 0.2368238,0.00181205357 0.529045061,0.00181205357 L9.8054887,0.00181205357 C10.9626893,0.00181205357 11.904018,0.943334096 11.904018,2.10034135 C11.904018,3.2573486 10.962496,4.19864967 9.8054887,4.19864967" id="Fill-6" fill="#E6C043" mask="url(#mask-4)"></path>
                </g>
            </g>
        </g>
    </g>
</svg>