<?xml version="1.0" encoding="UTF-8"?>
<svg width="88px" height="88px" viewBox="0 0 88 88" version="1.1" xmlns="http://www.w3.org/2000/svg" xmlns:xlink="http://www.w3.org/1999/xlink">
    <!-- Generator: Sketch 49.2 (51160) - http://www.bohemiancoding.com/sketch -->
    <title>btn/tff_fan/oval</title>
    <desc>Created with Sketch.</desc>
    <defs>
        <polygon id="path-1" points="56.5714286 0.0603723214 56.5714286 16.8483857 3.31473214e-05 16.8483857 3.31473214e-05 0.0603723214"></polygon>
        <polygon id="path-3" points="0 16.7945987 0 0.00724821429 47.616072 0.00724821429 47.616072 16.7945987"></polygon>
    </defs>
    <g id="btn/tff_fan/oval" stroke="none" stroke-width="1" fill="none" fill-rule="evenodd">
        <circle id="Oval-5" fill="#333333" cx="44" cy="44" r="44"></circle>
        <g id="btn_tff_fan_off" transform="translate(15.000000, 22.000000)">
            <g id="icon_tff_fan" transform="translate(0.714286, 0.000000)">
                <g id="Group-3" transform="translate(0.000000, 0.050163)">
                    <mask id="mask-2" fill="white">
                        <use xlink:href="#path-1"></use>
                    </mask>
                    <g id="Clip-2"></g>
                    <path d="M48.177455,16.8483857 L2.11615815,16.8483857 C0.947273103,16.8483857 3.31473214e-05,15.9010353 3.31473214e-05,14.7322607 C3.31473214e-05,13.5634862 0.947273103,12.6161357 2.11615815,12.6161357 L48.177455,12.6161357 C50.472686,12.6161357 52.3392117,10.74961 52.3392117,8.45437902 C52.3392117,6.1590375 50.472686,4.29262232 48.177455,4.29262232 C45.8827765,4.29262232 44.0163613,6.1590375 44.0163613,8.45437902 C44.0163613,9.62315357 43.0691213,10.570504 41.9002363,10.570504 C40.7313512,10.570504 39.7841113,9.62315357 39.7841113,8.45437902 C39.7841113,3.82568705 43.549426,0.0603723214 48.177455,0.0603723214 C52.805484,0.0603723214 56.5714617,3.82568705 56.5714617,8.45437902 C56.5714617,13.083071 52.805484,16.8483857 48.177455,16.8483857" id="Fill-1" fill="#E6C043" mask="url(#mask-2)"></path>
                </g>
                <path d="M53.6088867,25.8569106 L2.11618025,25.8569106 C0.947295201,25.8569106 5.52455357e-05,24.9095602 5.52455357e-05,23.7406751 C5.52455357e-05,22.5719006 0.947295201,21.6245501 2.11618025,21.6245501 L53.6088867,21.6245501 C54.7776613,21.6245501 55.7249012,22.5719006 55.7249012,23.7406751 C55.7249012,24.9095602 54.7776613,25.8569106 53.6088867,25.8569106" id="Fill-4" fill="#E6C043"></path>
                <g id="Group-8" transform="translate(0.000000, 30.435208)">
                    <mask id="mask-4" fill="white">
                        <use xlink:href="#path-3"></use>
                    </mask>
                    <g id="Clip-7"></g>
                    <path d="M39.2219548,16.7945987 C34.5932628,16.7945987 30.8287215,13.0293944 30.8287215,8.4013654 C30.8287215,7.23248036 31.7759615,6.2852404 32.944736,6.2852404 C34.1137316,6.2852404 35.0609715,7.23248036 35.0609715,8.4013654 C35.0609715,10.6959335 36.9273867,12.5623487 39.2219548,12.5623487 C41.5172963,12.5623487 43.3837115,10.6959335 43.3837115,8.4013654 C43.3837115,6.10602388 41.5172963,4.23960871 39.2219548,4.23960871 L2.11618025,4.23960871 C0.947295201,4.23960871 -5.52455357e-05,3.29225826 -5.52455357e-05,2.12348371 C-5.52455357e-05,0.954709152 0.947295201,0.00724821429 2.11618025,0.00724821429 L39.2219548,0.00724821429 C43.8507573,0.00724821429 47.616072,3.77333638 47.616072,8.4013654 C47.616072,13.0293944 43.8499838,16.7945987 39.2219548,16.7945987" id="Fill-6" fill="#E6C043" mask="url(#mask-4)"></path>
                </g>
            </g>
        </g>
    </g>
</svg>